<?xml version="1.0" standalone="no"?>
<!DOCTYPE svg PUBLIC "-//W3C//DTD SVG 20010904//EN"
 "http://www.w3.org/TR/2001/REC-SVG-20010904/DTD/svg10.dtd">
<svg version="1.0" xmlns="http://www.w3.org/2000/svg"
 width="1562.000000pt" height="1600.000000pt" viewBox="0 0 1562.000000 1600.000000"
 preserveAspectRatio="xMidYMid meet">

<g transform="translate(0.000000,1600.000000) scale(0.100000,-0.100000)"
fill="#000000" stroke="none">
<path d="M0 8000 l0 -8000 7810 0 7810 0 0 8000 0 8000 -7810 0 -7810 0 0
-8000z m7920 7144 c22 -77 69 -165 110 -204 3 -3 24 -28 47 -56 60 -72 66
-122 57 -459 -4 -148 -10 -261 -12 -250 l-5 20 -8 -20 c-6 -15 -8 -9 -8 23 -1
46 -15 79 -46 102 -44 34 -68 32 -78 -5 -2 -11 -6 0 -7 25 l-3 45 -7 -40 -7
-40 -3 40 c-6 78 -17 -71 -20 -260 -1 -99 -5 -250 -9 -335 l-6 -155 -40 -2
c-67 -4 -148 -24 -182 -44 -17 -11 -33 -16 -36 -12 -4 8 -12 1105 -9 1250 2
69 3 73 43 114 83 86 144 186 178 292 7 21 18 36 24 34 6 -2 18 -30 27 -63z
m-455 -566 c-3 -13 -7 -49 -8 -81 -4 -61 -6 -64 -80 -109 -21 -13 -86 -56
-145 -97 -59 -41 -163 -112 -232 -157 -69 -45 -181 -121 -250 -169 -69 -47
-172 -115 -229 -151 -57 -35 -156 -101 -220 -147 -64 -46 -138 -96 -166 -112
-27 -16 -111 -70 -185 -120 -74 -50 -165 -108 -202 -129 l-68 -37 -29 22 c-17
12 -33 29 -36 37 -7 19 52 72 145 129 81 50 447 293 600 399 52 36 139 94 193
130 54 35 158 106 230 158 73 51 248 171 390 266 141 95 260 176 263 181 3 5
12 9 20 9 10 0 13 -7 9 -22z m1004 -54 c64 -41 181 -118 261 -170 80 -53 186
-120 235 -150 50 -30 142 -90 205 -133 319 -218 831 -558 974 -646 l79 -49
-38 -33 c-38 -33 -78 -43 -90 -22 -4 6 -15 13 -25 17 -17 7 -171 105 -428 273
-81 53 -199 129 -262 171 -63 41 -155 100 -205 130 -49 30 -151 95 -225 143
-74 48 -148 95 -163 104 -16 9 -70 43 -120 76 -51 33 -144 91 -207 130 l-115
70 -3 83 c-2 45 0 82 4 82 4 0 60 -34 123 -76z m3411 -198 c0 -8 -14 -56 -31
-108 -60 -183 -126 -435 -140 -534 -17 -123 -24 -131 -209 -261 -63 -45 -160
-120 -215 -168 -116 -101 -240 -195 -256 -195 -7 0 10 19 37 43 26 23 67 60
89 82 23 22 59 55 81 74 21 19 73 64 115 100 76 66 88 76 144 119 140 108 151
120 159 182 4 28 11 61 15 73 5 12 17 51 26 87 9 36 26 88 36 115 l20 50 -73
-71 c-71 -68 -186 -164 -258 -214 -30 -20 -212 -165 -290 -229 -14 -12 -63
-50 -110 -84 -412 -305 -680 -514 -745 -582 -11 -12 -63 -56 -115 -98 -101
-82 -132 -93 -163 -57 -23 27 -51 25 -75 -5 -17 -21 -20 -47 -25 -212 -8 -267
-24 -483 -43 -593 -22 -124 -50 -243 -68 -283 -7 -18 -22 -50 -31 -72 -10 -22
-29 -56 -42 -75 -12 -19 -23 -44 -23 -55 0 -11 -21 -39 -46 -62 -64 -60 -78
-57 -50 9 48 113 62 390 48 928 l-12 449 30 31 c29 29 155 125 495 375 98 72
244 182 324 245 81 63 203 156 270 205 68 50 230 169 360 265 433 320 740 536
764 539 4 1 7 -5 7 -13z m-7830 -66 c9 -9 74 -56 145 -105 39 -27 104 -76 145
-109 94 -77 169 -133 241 -183 31 -21 99 -70 150 -108 52 -39 123 -91 159
-115 68 -47 83 -59 134 -101 17 -14 76 -59 131 -99 80 -59 309 -239 419 -327
19 -15 116 -86 268 -195 48 -35 113 -80 145 -101 32 -21 78 -53 103 -72 25
-19 53 -41 64 -48 18 -12 18 -15 -4 -92 -13 -44 -26 -118 -30 -165 -11 -123 8
-815 25 -935 27 -183 37 -274 33 -292 -4 -22 -123 138 -157 212 -44 93 -79
220 -91 320 -6 55 -15 136 -20 180 -29 245 -43 613 -26 669 8 27 8 28 -13 16
-31 -16 -47 0 -71 74 -12 33 -17 45 -13 26 3 -19 7 -62 7 -95 1 -78 -17 -83
-76 -19 -24 26 -95 90 -158 142 -63 53 -117 99 -120 102 -3 3 -23 19 -45 35
-37 28 -184 144 -195 155 -3 3 -25 19 -50 35 -25 16 -97 71 -160 121 -63 50
-176 136 -250 191 -75 55 -142 106 -150 114 -8 8 -62 55 -120 104 -58 49 -168
152 -244 229 -76 77 -137 136 -135 131 2 -6 16 -35 32 -66 16 -33 31 -87 37
-130 10 -80 40 -175 71 -226 25 -40 121 -129 251 -234 57 -45 105 -85 108 -88
3 -3 48 -38 100 -78 117 -89 199 -153 330 -260 55 -46 103 -83 106 -83 2 0 33
-22 68 -50 35 -27 68 -50 72 -50 5 0 34 -20 65 -44 31 -24 75 -54 99 -66 52
-27 168 -106 196 -134 37 -37 66 -55 80 -49 10 4 14 -4 14 -27 l0 -31 -47 33
c-26 18 -53 38 -60 45 -7 6 -71 51 -143 100 -71 48 -156 106 -187 127 -32 22
-103 74 -158 115 -143 108 -366 274 -391 291 -45 31 -243 187 -349 276 -203
168 -227 204 -278 414 -32 131 -74 307 -81 340 -3 14 -14 66 -25 115 -29 129
-29 136 11 99 18 -16 35 -31 38 -34z m3947 18 c-3 -7 -5 -2 -5 12 0 14 2 19 5
13 2 -7 2 -19 0 -25z m-40 -50 c-3 -7 -5 -2 -5 12 0 14 2 19 5 13 2 -7 2 -19
0 -25z m20 -15 c-3 -10 -5 -4 -5 12 0 17 2 24 5 18 2 -7 2 -21 0 -30z m6359
-139 c-40 -77 -106 -194 -146 -260 -81 -132 -100 -165 -157 -274 -92 -174
-186 -336 -203 -350 -7 -6 -60 -114 -113 -231 -23 -50 -47 -86 -72 -106 -39
-33 -191 -113 -212 -113 -7 0 -13 -4 -13 -10 0 -5 -9 -10 -21 -10 -11 0 -17
-4 -14 -10 3 -5 0 -10 -9 -10 -8 0 -16 -3 -18 -7 -4 -10 -63 -43 -75 -43 -4 0
0 5 10 11 9 5 17 15 17 20 0 14 26 39 39 39 6 0 11 8 12 18 0 10 3 12 6 5 7
-19 19 -16 42 8 12 13 24 18 33 13 7 -4 5 2 -4 13 -25 27 -23 31 17 39 19 3
39 12 45 19 6 8 18 11 26 8 7 -3 17 2 20 11 4 11 13 14 30 10 17 -4 26 -1 30
11 4 9 17 20 29 25 14 5 25 20 29 41 3 18 9 29 12 26 4 -4 25 33 48 81 23 48
52 105 66 127 31 50 60 112 54 118 -2 2 2 17 11 33 8 16 15 34 15 39 1 6 11
23 24 38 15 19 21 37 18 54 -3 14 -1 28 5 32 19 13 65 81 54 81 -6 0 -48 -29
-94 -64 -46 -36 -155 -113 -243 -172 -152 -102 -245 -168 -364 -259 -30 -23
-91 -65 -135 -94 -107 -68 -274 -182 -415 -280 -203 -142 -761 -511 -1210
-801 -124 -80 -257 -167 -295 -193 -39 -27 -126 -86 -195 -131 -69 -45 -195
-130 -280 -188 -332 -224 -382 -257 -593 -388 -293 -182 -358 -218 -490 -270
-70 -28 -134 -33 -127 -10 2 8 3 37 2 64 -2 50 -20 75 -54 76 -30 0 -30 19 -1
46 43 40 261 188 371 252 161 93 497 312 738 480 62 42 178 122 259 177 80 55
190 131 243 169 155 111 176 126 752 513 41 28 210 139 375 248 165 109 325
217 355 240 109 82 245 174 662 445 451 294 939 622 1013 682 100 80 159 121
163 110 1 -4 -31 -71 -72 -148z m-6876 69 c0 -27 -4 -53 -8 -60 -4 -6 -43 -35
-87 -64 -44 -28 -105 -71 -135 -94 -79 -61 -533 -376 -695 -482 -487 -320
-554 -363 -581 -375 -21 -10 -29 -7 -61 18 -20 17 -38 35 -40 41 -2 6 22 25
53 43 32 18 159 100 283 182 301 199 336 223 406 275 33 24 141 98 240 163 99
66 207 138 240 162 77 54 368 238 378 238 4 0 7 -21 7 -47z m995 0 c44 -27
143 -91 220 -143 77 -52 202 -133 277 -180 223 -138 425 -269 543 -350 105
-73 178 -119 362 -226 45 -26 84 -53 87 -60 6 -16 -50 -72 -81 -80 -13 -3 -33
2 -50 13 -15 11 -66 44 -113 75 -47 30 -158 104 -248 164 -90 60 -211 139
-270 176 -59 37 -153 98 -210 135 -56 37 -159 103 -229 146 -69 42 -158 99
-197 125 -39 26 -92 60 -118 75 -72 42 -78 51 -78 118 0 41 4 59 13 59 6 0 48
-21 92 -47z m-6750 -178 c204 -138 346 -233 535 -358 96 -63 220 -147 275
-186 55 -38 144 -99 197 -133 105 -69 477 -319 576 -389 308 -216 429 -298
707 -482 199 -131 368 -246 570 -387 66 -46 152 -105 190 -130 39 -26 224
-150 413 -276 189 -126 401 -267 473 -314 71 -47 207 -137 301 -201 95 -64
227 -150 293 -192 122 -77 203 -150 329 -300 31 -37 101 -112 156 -165 68 -68
96 -102 90 -111 -4 -8 -13 -10 -19 -7 -6 4 -14 0 -17 -8 -3 -9 -12 -16 -20
-16 -19 0 -6 -28 19 -42 15 -8 22 -8 25 0 2 6 9 9 16 6 8 -3 15 5 18 20 3 14
1 26 -5 26 -6 0 -8 2 -5 5 9 10 78 -28 78 -42 0 -43 -130 -38 -235 10 -110 50
-556 322 -705 431 -30 22 -92 63 -137 91 -45 27 -166 107 -270 176 -103 69
-240 161 -303 203 -63 42 -176 119 -250 171 -74 52 -254 174 -399 272 -146 98
-317 214 -380 257 -118 81 -352 236 -643 428 -90 59 -183 122 -208 139 -25 17
-80 54 -123 83 -212 140 -454 308 -557 386 -110 83 -140 104 -330 235 -98 67
-275 194 -370 265 -75 56 -90 60 -90 24 0 -14 4 -23 10 -19 6 4 10 -8 10 -30
0 -20 7 -50 16 -67 18 -34 45 -120 40 -126 -6 -5 -41 48 -86 133 -24 44 -72
134 -108 200 -172 316 -282 538 -282 569 0 5 17 -6 38 -26 20 -20 96 -75 167
-123z m5745 -198 c0 -66 -9 -75 -175 -182 -195 -126 -229 -149 -249 -167 -17
-16 -75 -56 -296 -206 -52 -35 -122 -86 -155 -111 -110 -86 -333 -231 -356
-231 -26 0 -99 47 -99 64 1 15 22 29 170 116 115 67 230 145 495 335 55 40
147 103 205 140 58 37 130 85 160 106 30 21 93 64 140 95 47 31 96 65 110 75
42 30 50 24 50 -34z m1061 -42 c59 -30 184 -105 278 -167 94 -62 203 -134 243
-160 40 -25 125 -83 188 -127 63 -44 132 -91 152 -103 109 -68 307 -204 307
-212 1 -11 -79 -86 -91 -86 -11 0 -43 21 -148 95 -47 34 -99 70 -117 80 -18
11 -74 52 -125 91 -51 40 -120 89 -153 109 -33 21 -136 88 -230 150 -93 62
-219 138 -280 168 -60 31 -127 70 -147 87 -36 30 -38 34 -38 90 l0 60 28 -11
c15 -5 75 -34 133 -64z m-397 -42 c3 -16 8 -48 11 -73 3 -25 8 -57 11 -72 7
-38 -17 -37 -92 3 -61 32 -83 47 -50 35 14 -5 17 -3 12 10 -5 12 -2 15 10 10
8 -3 23 -6 32 -6 15 0 15 -2 2 -10 -13 -8 -13 -10 2 -10 35 0 51 30 45 87 -6
55 7 74 17 26z m-124 -77 c0 -15 -37 -32 -47 -22 -4 3 1 6 10 6 10 0 17 7 17
15 0 8 5 15 10 15 6 0 10 -6 10 -14z m-23 -262 c7 -10 13 -45 13 -80 l0 -61
46 -7 c26 -3 76 -6 111 -6 l65 0 15 40 c18 45 31 48 95 24 59 -23 80 -48 72
-89 -5 -29 -2 -36 28 -58 38 -29 78 -42 111 -33 24 6 88 60 103 89 10 17 14
16 52 -15 22 -18 41 -39 41 -45 1 -7 -15 -33 -34 -59 -19 -25 -35 -53 -35 -63
0 -32 130 -147 187 -165 18 -6 33 3 77 44 40 38 59 49 70 43 13 -7 96 -116 96
-126 0 -2 -18 -12 -40 -22 -49 -22 -50 -37 -9 -111 35 -62 157 -174 189 -174
11 0 28 -8 38 -18 60 -63 107 -130 97 -140 -3 -3 -20 -11 -38 -17 -32 -10 -32
-11 -31 -75 1 -36 9 -90 17 -120 8 -30 21 -83 27 -117 l13 -63 63 0 63 0 -6
-87 c-3 -49 -10 -93 -15 -100 -5 -6 -26 -14 -47 -18 -32 -5 -39 -12 -50 -42
-7 -20 -13 -53 -13 -74 1 -21 -3 -41 -9 -44 -5 -4 -10 -21 -10 -38 -1 -18 -3
-24 -6 -15 -2 10 -10 15 -19 11 -10 -4 -14 3 -15 23 l-1 29 -11 -25 c-7 -15
-19 -24 -27 -22 -12 2 -21 -16 -35 -75 -10 -43 -22 -80 -27 -83 -4 -3 -9 -24
-10 -47 -2 -23 -7 -39 -12 -35 -5 3 -6 -5 -3 -18 7 -25 -13 -82 -38 -106 -8
-9 -15 -22 -15 -30 0 -19 -76 -173 -114 -234 -40 -61 -263 -284 -306 -304
l-35 -17 29 23 c116 89 296 316 374 470 60 120 76 163 104 278 11 47 24 87 27
90 4 3 6 109 6 235 -1 185 -5 244 -19 300 -78 307 -154 459 -306 615 -118 121
-173 165 -284 229 -253 146 -426 195 -701 195 -143 0 -183 -3 -252 -22 -189
-49 -328 -116 -481 -231 -275 -207 -441 -470 -511 -808 -38 -182 -22 -499 34
-678 13 -44 22 -91 19 -105 -3 -20 -3 -21 4 -6 10 23 17 14 27 -31 5 -27 4
-33 -10 -33 -14 0 -15 3 -5 15 10 13 9 15 -9 15 -11 0 -21 6 -21 13 0 8 -4 7
-10 -3 -7 -11 -10 -11 -10 -2 0 7 -5 10 -10 7 -6 -4 -7 -11 -4 -17 4 -6 -2 -8
-17 -3 -17 4 -20 3 -10 -3 9 -7 11 -19 7 -36 -4 -15 -2 -26 4 -26 5 0 10 -8
10 -17 0 -15 -2 -15 -9 -4 -7 11 -10 9 -13 -10 -2 -20 -6 -15 -22 26 -10 28
-24 57 -31 65 -6 8 -17 34 -25 57 -19 63 -40 78 -89 65 -58 -14 -70 -1 -73 78
l-3 65 48 3 49 3 -4 154 c-2 103 -7 158 -15 166 -7 7 -40 13 -73 15 -34 1 -62
3 -64 5 -1 2 -1 52 2 112 l4 107 57 0 c32 0 65 6 75 13 18 13 86 256 86 307 0
20 -10 30 -47 50 -27 14 -50 33 -51 44 -6 31 20 136 39 159 l17 22 29 -26 c53
-50 81 -63 108 -51 26 12 155 201 155 227 0 9 -14 36 -30 59 -26 35 -29 47
-21 68 8 22 97 108 111 108 3 0 26 -18 50 -40 24 -22 48 -40 52 -40 13 0 162
90 186 113 42 39 44 51 17 126 -15 39 -23 76 -20 81 8 12 69 23 92 16 10 -3
30 -16 44 -30 14 -13 35 -29 48 -35 31 -17 62 5 107 75 30 47 97 104 122 104
5 0 13 -21 18 -47 l9 -48 70 1 c109 1 143 10 160 44 8 16 15 40 15 54 0 14 5
37 10 52 10 26 12 27 72 21 43 -4 66 -11 75 -23z m4090 -41 c18 -8 42 -30 53
-48 38 -62 19 -185 -32 -201 -10 -3 -18 -10 -18 -15 0 -6 -9 -7 -21 -4 -14 5
-19 3 -15 -3 12 -20 -53 -25 -92 -7 -56 26 -90 63 -108 118 -15 46 -15 51 2
89 38 85 135 115 231 71z m-517 -146 c0 -7 -4 -17 -9 -22 -5 -6 -40 -82 -79
-170 -38 -88 -90 -200 -115 -250 -72 -145 -115 -238 -131 -281 -50 -139 -58
-147 -271 -276 -199 -121 -244 -150 -390 -252 -71 -50 -188 -129 -261 -176
-197 -127 -246 -160 -276 -188 -15 -14 -31 -22 -35 -19 -4 4 9 56 29 115 46
137 54 170 73 322 23 183 25 186 114 250 128 91 239 172 340 246 53 38 161
115 241 169 80 55 190 134 246 176 56 43 132 97 170 121 38 24 105 70 148 103
199 152 206 156 206 132z m3067 -89 c-9 -13 -41 -66 -71 -118 -30 -52 -63
-109 -73 -127 -10 -17 -57 -91 -104 -165 -47 -73 -97 -153 -111 -178 -14 -25
-45 -76 -70 -115 -45 -71 -158 -264 -158 -270 0 -2 -22 -50 -49 -105 -54 -111
-75 -132 -170 -170 -28 -11 -86 -38 -129 -61 -253 -136 -319 -164 -262 -111
13 12 27 19 32 16 5 -3 7 -2 6 3 -2 5 14 26 35 47 35 36 42 52 38 84 -1 6 5
12 14 12 9 0 18 7 21 15 4 8 15 15 25 15 12 0 19 7 19 18 0 14 9 18 42 19 22
1 46 7 51 12 7 7 15 7 22 1 13 -11 69 36 60 51 -3 4 -1 10 5 14 5 3 10 14 10
23 0 9 28 44 63 78 77 76 111 119 143 181 14 26 36 62 48 78 12 17 32 50 45
75 12 25 35 59 51 75 53 55 70 75 64 75 -3 0 -35 -19 -72 -43 -37 -24 -107
-67 -157 -97 -49 -29 -126 -77 -170 -105 -44 -29 -123 -78 -175 -110 -52 -32
-142 -90 -200 -129 -58 -40 -226 -148 -375 -240 -148 -92 -326 -205 -395 -251
-69 -46 -170 -108 -225 -138 -55 -30 -163 -89 -240 -132 -77 -43 -158 -84
-180 -92 -39 -14 -143 -32 -310 -53 -44 -6 -100 -15 -125 -20 -25 -6 -94 -19
-154 -30 -60 -11 -121 -23 -135 -27 -42 -9 -15 11 84 63 107 57 198 111 280
168 63 44 211 138 505 323 96 60 239 150 317 199 78 49 204 127 280 173 179
109 367 227 418 262 65 43 271 167 380 227 55 30 111 62 125 72 14 9 63 37
110 62 181 98 248 136 343 196 54 34 100 62 103 62 2 0 23 12 47 28 78 50 312
181 326 181 11 1 10 -4 -2 -21z m-13285 -43 c90 -50 146 -84 373 -227 216
-136 372 -229 618 -370 116 -67 275 -163 353 -214 77 -51 246 -158 375 -238
129 -80 365 -231 524 -335 160 -105 333 -217 385 -249 52 -32 235 -150 405
-263 171 -113 362 -239 425 -280 63 -41 189 -124 280 -186 91 -62 293 -197
450 -302 399 -265 421 -281 415 -291 -7 -11 -66 5 -75 21 -5 7 -9 5 -13 -5 -4
-9 -13 -16 -22 -16 -8 0 -15 -7 -15 -15 0 -8 -12 -17 -27 -20 -16 -4 -46 -10
-68 -15 -78 -17 -100 -18 -137 -6 -53 19 -348 188 -453 261 -81 55 -471 302
-633 399 -35 21 -111 73 -170 115 -59 42 -163 112 -232 154 -295 183 -473 298
-595 382 -71 50 -149 101 -172 115 -151 89 -530 336 -1013 661 -136 91 -150
100 -380 241 -238 145 -275 167 -279 162 -2 -2 1 -10 8 -18 6 -7 42 -74 80
-147 37 -74 91 -178 119 -231 29 -54 52 -107 52 -118 0 -12 4 -18 10 -15 5 3
7 0 4 -9 -3 -8 9 -34 26 -58 31 -42 31 -43 10 -46 -31 -5 -47 13 -91 97 -51
101 -92 171 -144 252 -46 71 -61 98 -175 309 -41 74 -94 167 -118 205 -25 39
-74 126 -110 195 -35 69 -69 131 -75 138 -16 20 -2 14 85 -33z m3133 -30 c44
-34 121 -87 170 -120 50 -32 133 -90 185 -130 52 -39 140 -101 195 -137 55
-36 171 -117 257 -179 86 -63 202 -145 258 -183 127 -87 176 -134 183 -177 4
-19 11 -92 17 -162 5 -71 12 -133 15 -137 4 -7 54 -263 55 -279 0 -2 -18 13
-40 32 -21 20 -56 46 -77 57 -43 23 -86 54 -147 103 -23 19 -79 58 -126 89
-47 30 -143 93 -215 140 -143 93 -279 177 -367 227 -70 39 -87 62 -139 188
-39 93 -61 142 -114 258 -13 28 -40 88 -60 135 -53 122 -66 151 -90 190 -23
37 -65 137 -65 152 0 12 8 6 105 -67z m6517 18 c-52 -45 -62 -52 -85 -65 -32
-17 -160 -111 -309 -225 -112 -87 -138 -103 -138 -85 1 12 26 42 36 42 5 0 16
9 24 20 8 11 18 20 23 20 4 0 13 5 20 10 7 6 39 31 72 56 33 25 67 50 75 57 8
7 37 26 63 42 27 17 61 40 77 53 15 12 32 22 36 22 5 0 31 16 58 35 51 36 85
48 48 18z m-3022 -223 c143 -23 340 -80 425 -122 122 -62 277 -187 373 -302
42 -49 108 -175 138 -260 29 -82 65 -295 68 -398 1 -34 -4 -53 -17 -65 -17
-17 -18 -17 -8 10 38 100 -34 206 -111 166 -54 -28 -78 -61 -78 -109 0 -93 77
-149 144 -104 16 10 26 12 31 5 3 -6 1 -11 -4 -11 -6 0 -11 -10 -11 -22 0 -13
-4 -29 -9 -37 -11 -17 -3 -43 11 -35 6 4 5 10 -3 15 -10 6 -9 10 6 15 11 4 23
12 27 18 11 16 9 -61 -2 -114 -17 -78 -92 -270 -116 -295 -12 -13 -25 -34 -29
-45 -12 -37 -17 -14 -6 26 7 25 7 42 1 48 -6 6 -10 28 -10 49 0 36 -2 39 -22
33 -13 -3 -43 -6 -68 -6 -39 0 -49 -5 -71 -33 -32 -40 -45 -77 -28 -77 16 0
69 -59 69 -77 0 -7 9 -13 20 -13 11 0 20 -3 20 -7 -1 -14 -24 -39 -42 -46 -20
-7 -23 5 -8 34 23 42 -17 28 -76 -26 -32 -30 -65 -55 -71 -55 -7 0 -22 -9 -34
-21 l-20 -20 -26 25 -25 26 27 22 c52 43 153 147 147 152 -3 3 -36 -25 -73
-63 -38 -37 -85 -76 -104 -87 -27 -14 -35 -25 -35 -47 0 -16 -7 -30 -15 -34
-9 -3 -22 -18 -30 -32 -9 -18 -28 -32 -54 -41 -23 -7 -41 -19 -41 -26 0 -7 -8
-10 -20 -7 -13 4 -26 -1 -33 -11 -7 -10 -24 -19 -37 -20 -60 -8 -82 -18 -77
-37 3 -11 0 -20 -6 -20 -7 -1 2 -4 18 -8 17 -4 32 -4 35 -1 6 7 128 30 181 34
20 2 41 6 48 10 6 4 11 3 11 -3 0 -16 -45 -35 -145 -64 -146 -41 -208 -50
-308 -44 -250 14 -581 155 -746 318 -68 68 -157 192 -196 276 -84 175 -128
501 -91 673 35 164 97 305 200 453 72 103 140 168 254 241 133 86 227 126 417
176 116 31 148 33 235 20z m-5509 -103 c20 -9 42 -23 49 -32 7 -8 19 -15 26
-15 8 0 14 -4 14 -8 0 -5 31 -21 69 -36 38 -15 75 -33 81 -41 6 -8 25 -17 41
-20 17 -4 33 -13 36 -21 3 -8 13 -14 23 -14 9 0 25 -9 35 -20 10 -11 24 -20
31 -20 7 0 19 -8 26 -19 18 -25 76 -53 91 -44 9 5 9 3 0 -8 -11 -13 -9 -18 12
-29 42 -23 28 -32 -15 -10 -23 12 -38 25 -35 31 4 5 3 8 -2 7 -20 -5 -112 41
-228 117 -27 18 -97 62 -155 99 -58 37 -116 76 -130 87 -26 22 -26 22 31 -4z
m10859 -1 c0 -3 -4 -8 -10 -11 -5 -3 -10 -1 -10 4 0 6 5 11 10 11 6 0 10 -2
10 -4z m-577 -189 c3 -8 0 -14 -6 -14 -7 0 -21 -4 -32 -8 -16 -5 -15 -3 5 14
30 25 27 24 33 8z m-2473 -5 c0 -4 -13 -16 -30 -25 -16 -10 -51 -38 -77 -62
-27 -25 -51 -45 -54 -45 -4 0 -7 27 -7 60 0 47 3 60 15 60 8 0 17 -9 20 -20 4
-16 9 -18 18 -10 8 6 22 10 32 8 11 -2 17 2 15 11 -2 8 3 11 12 8 8 -3 22 1
33 8 21 17 23 17 23 7z m-7188 -168 c7 -5 26 -16 42 -24 17 -8 41 -25 54 -38
14 -12 42 -27 63 -32 44 -12 96 -3 80 13 -6 6 -3 16 12 29 20 18 21 19 2 13
-11 -4 -30 -9 -41 -10 -17 -2 -21 1 -16 18 3 13 -2 25 -14 35 -17 13 -15 14
23 9 63 -8 106 -59 60 -71 -29 -7 -20 -13 32 -20 l45 -6 -22 20 c-31 29 -27
35 6 12 15 -10 35 -22 45 -25 9 -4 17 -11 17 -17 0 -5 5 -10 11 -10 6 0 24
-11 40 -24 l29 -24 -31 -26 c-32 -27 -39 -29 -76 -26 -13 1 -23 -2 -23 -7 0
-15 40 -43 61 -43 15 0 19 -5 15 -15 -3 -9 0 -15 8 -15 8 0 28 -13 46 -30 18
-16 40 -30 49 -29 12 0 12 2 -4 9 -11 5 -14 9 -7 9 20 1 14 24 -15 49 -21 18
-24 25 -14 31 7 5 10 14 7 20 -5 7 2 11 18 11 13 0 26 5 28 11 3 8 10 6 20 -5
9 -9 24 -16 33 -16 10 0 13 -5 9 -12 -5 -7 -2 -9 9 -5 8 3 21 -1 27 -9 7 -8
18 -14 24 -14 7 0 30 -15 52 -33 21 -19 54 -42 72 -53 20 -11 30 -24 27 -32
-3 -10 0 -12 10 -8 17 6 22 -29 5 -39 -6 -4 -8 -11 -4 -16 3 -6 -3 -13 -14
-16 -11 -2 -22 -13 -25 -24 -3 -11 -1 -16 5 -13 11 7 75 -65 70 -79 -1 -4 7
-3 19 4 13 6 19 7 15 1 -3 -6 2 -13 11 -16 26 -9 84 -62 76 -70 -4 -4 0 -4 10
0 11 4 17 1 17 -7 0 -8 21 -23 46 -34 25 -11 56 -29 68 -40 12 -11 41 -33 64
-49 23 -16 42 -33 42 -38 0 -11 7 -15 -154 87 -313 197 -430 278 -410 286 10
3 34 4 53 1 28 -4 33 -2 29 14 -2 11 -13 20 -26 22 -13 2 -28 12 -35 23 -15
24 -29 24 -44 0 -11 -17 -9 -21 7 -26 24 -8 26 -21 3 -29 -9 -4 -32 4 -54 19
-21 14 -42 25 -45 25 -4 0 -21 11 -38 24 -17 13 -41 26 -53 30 -13 4 -23 12
-23 17 0 5 -6 9 -14 9 -8 0 -16 4 -18 8 -1 5 -28 25 -58 44 -30 20 -66 47 -80
60 -14 13 -48 37 -75 53 -67 38 -96 61 -88 69 3 3 -2 6 -13 6 -20 0 -134 76
-134 89 0 11 35 7 52 -5z m9568 -88 c0 -2 -6 -9 -13 -15 -10 -8 -14 -7 -14 4
0 8 6 15 14 15 7 0 13 -2 13 -4z m-313 -28 c-3 -8 -6 -5 -6 6 -1 11 2 17 5 13
3 -3 4 -12 1 -19z m56 5 c-7 -2 -19 -2 -25 0 -7 3 -2 5 12 5 14 0 19 -2 13 -5z
m201 -24 c-3 -5 -10 -7 -15 -4 -5 4 -12 -1 -15 -10 -4 -9 -20 -23 -36 -31 -17
-9 -27 -11 -24 -6 3 6 0 13 -6 16 -7 4 -3 4 9 2 13 -2 20 1 17 8 -5 13 46 44
63 38 7 -2 10 -8 7 -13z m-9010 -45 c3 -8 2 -12 -4 -9 -6 3 -10 10 -10 16 0
14 7 11 14 -7z m8756 -78 c0 -9 -30 -14 -35 -6 -4 6 3 10 14 10 12 0 21 -2 21
-4z m-30 -36 c0 -5 -5 -10 -11 -10 -5 0 -7 5 -4 10 3 6 8 10 11 10 2 0 4 -4 4
-10z m-230 -17 c0 -12 -33 -43 -47 -43 -7 0 -13 -4 -13 -10 0 -13 -67 -13 -75
-1 -5 9 20 21 53 27 7 1 23 9 35 18 23 16 47 21 47 9z m43 -93 c7 0 6 -4 -3
-10 -11 -7 -11 -10 -2 -10 7 0 11 -4 8 -9 -3 -4 -16 -6 -30 -4 -18 4 -22 10
-19 25 4 12 11 17 20 14 8 -3 20 -6 26 -6z m-10793 -72 c36 -19 110 -59 165
-88 55 -29 105 -56 110 -60 6 -4 190 -98 410 -210 412 -209 547 -282 745 -405
111 -69 458 -270 530 -307 19 -10 85 -49 145 -88 61 -38 137 -86 170 -105 33
-20 92 -56 130 -80 39 -24 129 -78 200 -120 72 -42 195 -117 275 -167 145 -90
397 -238 407 -238 3 0 19 -10 36 -22 18 -13 59 -37 92 -54 33 -17 61 -38 63
-47 5 -25 -47 -26 -94 -1 -36 19 -46 20 -85 10 -53 -13 -106 -51 -88 -62 22
-13 -32 -25 -80 -18 -64 10 -164 58 -308 147 -68 42 -176 103 -240 136 -65 32
-193 103 -285 158 -92 54 -205 120 -250 146 -46 26 -128 76 -183 111 -55 35
-163 98 -240 141 -77 43 -203 117 -280 165 -162 100 -233 142 -329 195 -78 43
-500 294 -591 351 -141 89 -215 133 -215 128 0 -3 12 -17 26 -32 14 -15 46
-67 71 -117 24 -49 53 -101 62 -115 45 -64 144 -299 139 -327 -1 -10 1 -24 5
-30 5 -7 4 -13 0 -13 -26 0 -57 42 -106 142 -54 110 -113 219 -144 267 -8 12
-28 46 -43 75 -16 28 -51 89 -79 136 -27 47 -72 126 -99 175 -92 170 -115 210
-134 237 -26 37 -24 54 5 36 12 -8 51 -31 87 -50z m10515 52 c3 -6 -1 -7 -9
-4 -18 7 -21 14 -7 14 6 0 13 -4 16 -10z m2815 -28 c0 -5 -12 -27 -27 -49
-102 -145 -141 -206 -226 -354 -53 -92 -135 -222 -183 -290 -48 -68 -105 -158
-127 -199 -21 -41 -48 -86 -60 -98 -100 -108 -95 26 5 165 21 29 38 56 38 61
0 12 74 126 97 149 10 10 27 35 36 56 10 20 22 37 28 37 6 0 8 4 5 9 -3 5 8
24 24 42 52 60 35 65 -49 15 -31 -18 -101 -57 -156 -86 -55 -30 -188 -105
-295 -169 -107 -64 -211 -124 -230 -135 -19 -10 -75 -44 -125 -74 -49 -30
-155 -91 -235 -135 -80 -43 -181 -103 -225 -132 -82 -54 -222 -130 -285 -155
-19 -7 -95 -42 -167 -77 -73 -35 -135 -63 -137 -63 -2 0 -2 10 1 21 6 22 86
79 110 79 19 0 131 53 176 84 21 14 40 26 42 26 15 0 247 189 297 241 48 50
71 110 50 131 -7 7 -56 -14 -153 -63 -79 -40 -150 -79 -157 -86 -19 -18 -53
-36 -58 -30 -15 14 399 337 431 337 4 0 37 17 73 39 57 33 227 122 442 232 73
37 224 107 280 129 25 10 101 45 170 78 69 33 159 73 200 90 115 47 259 114
320 149 59 34 70 38 70 25z m-1057 -19 c-7 -2 -21 -2 -30 0 -10 3 -4 5 12 5
17 0 24 -2 18 -5z m-1603 -18 c0 -2 -10 -9 -22 -15 -22 -11 -22 -10 -4 4 21
17 26 19 26 11z m-9925 -23 c-3 -3 -11 0 -18 7 -9 10 -8 11 6 5 10 -3 15 -9
12 -12z m62 -25 c4 -7 0 -8 -11 -4 -10 4 -22 7 -27 7 -5 0 -9 4 -9 9 0 12 38
2 47 -12z m9833 8 c0 -2 -9 -3 -19 -2 -11 0 -18 5 -15 9 4 6 34 0 34 -7z
m-9664 -88 c6 -2 23 -10 37 -20 15 -9 30 -17 34 -17 5 0 15 -9 23 -20 8 -11
19 -20 26 -20 6 0 19 -9 29 -20 10 -12 25 -18 32 -15 8 2 11 0 8 -5 -3 -6 0
-10 8 -10 8 0 20 -7 27 -15 9 -10 9 -15 1 -15 -6 0 -11 4 -11 9 0 5 -13 11
-28 14 -15 3 -50 21 -78 40 -28 19 -73 46 -100 60 -27 15 -56 31 -64 37 -14
10 -4 9 56 -3z m344 -207 c24 -15 7 -18 -25 -4 -23 10 -25 13 -10 13 11 1 27
-3 35 -9z m50 -40 c0 -5 -2 -10 -4 -10 -3 0 -8 5 -11 10 -3 6 -1 10 4 10 6 0
11 -4 11 -10z m1664 1 c4 -5 -3 -7 -14 -4 -23 6 -26 13 -6 13 8 0 17 -4 20 -9z
m8176 -435 c0 -2 -26 -16 -57 -31 -86 -42 -348 -308 -393 -399 -29 -59 -32
-72 -27 -128 3 -35 12 -96 21 -137 9 -41 13 -85 9 -99 -4 -16 -2 -23 4 -19 9
6 20 -17 27 -53 1 -3 4 -9 8 -15 10 -16 37 -110 69 -238 30 -123 74 -272 88
-297 8 -15 50 -182 72 -285 6 -27 19 -77 30 -110 10 -33 34 -121 53 -195 19
-74 47 -166 61 -205 15 -38 38 -113 51 -165 36 -139 103 -365 132 -444 31 -87
108 -167 234 -243 102 -62 161 -114 153 -135 -4 -10 -34 -19 -93 -27 -48 -6
-135 -18 -194 -26 -248 -34 -340 -49 -468 -77 -151 -33 -181 -38 -360 -62 -69
-9 -149 -24 -179 -32 -29 -8 -56 -13 -59 -10 -11 12 23 62 122 175 116 134
156 200 156 262 0 53 -58 278 -77 300 -11 13 -22 15 -51 9 -20 -5 -86 -13
-145 -19 -107 -11 -301 -45 -344 -62 -13 -5 -23 -15 -23 -24 0 -29 -26 -14
-70 41 -25 31 -69 78 -98 105 -62 57 -213 159 -234 159 -15 0 -28 -45 -28 -95
0 -17 2 -18 11 -5 10 15 10 13 -7 -50 -2 -8 -6 -33 -8 -55 -3 -22 -11 -65 -17
-95 -7 -30 -13 -77 -15 -105 -2 -27 -8 -51 -13 -53 -6 -2 -8 -17 -4 -33 5 -27
-2 -80 -27 -194 -5 -22 -12 -70 -15 -106 l-6 -65 48 -45 c26 -24 83 -67 125
-94 43 -28 78 -53 78 -57 0 -4 -21 -9 -47 -13 -27 -3 -68 -12 -93 -20 -25 -8
-180 -37 -345 -64 -165 -28 -331 -58 -370 -66 -228 -52 -366 -78 -480 -92
l-49 -6 112 119 c278 296 306 352 452 874 10 36 26 90 35 120 9 30 23 82 31
115 24 96 35 136 57 202 21 61 21 62 2 84 -11 12 -53 46 -92 76 -40 30 -73 57
-73 60 0 3 64 2 143 -2 l142 -6 150 -74 c223 -109 303 -145 325 -145 25 0 52
-15 107 -57 60 -48 65 -40 9 13 -43 42 -47 50 -42 80 5 23 2 35 -8 41 -13 8
-56 145 -56 182 0 32 -41 56 -222 127 -174 68 -268 110 -268 120 0 3 17 58 39
122 53 161 106 326 124 392 9 30 27 93 41 140 56 197 89 362 83 422 l-5 58 28
0 c26 0 269 -118 331 -161 14 -10 68 -38 121 -63 115 -55 122 -62 102 -101
-19 -38 -54 -166 -43 -159 5 3 9 12 9 21 0 10 6 13 16 9 8 -3 13 -2 10 3 -8
13 20 21 31 10 14 -14 1 -78 -43 -219 -34 -108 -64 -207 -84 -275 -5 -16 -16
-66 -25 -110 -8 -44 -19 -89 -24 -100 -23 -52 -55 -235 -43 -247 8 -8 548 84
559 95 12 13 -70 339 -159 632 -45 149 -101 354 -118 435 -24 114 -35 142 -69
172 -33 29 -144 85 -256 130 -27 11 -105 44 -173 74 -68 30 -182 70 -253 89
-126 34 -249 86 -249 105 0 6 17 10 37 10 45 0 251 34 638 105 105 19 244 44
310 56 66 11 156 30 200 40 44 11 186 42 315 69 129 27 280 60 335 74 169 41
255 56 255 42z m-5669 -133 c13 -16 12 -17 -3 -4 -10 7 -18 15 -18 17 0 8 8 3
21 -13z m69 -90 c-1 -10 -39 39 -40 51 0 5 9 -3 20 -17 11 -14 20 -29 20 -34z
m194 -162 c39 -29 64 -51 56 -47 -8 3 -23 9 -32 12 -10 4 -18 10 -18 15 0 5
-5 9 -11 9 -26 0 -179 134 -179 157 0 7 25 -11 56 -40 31 -29 88 -76 128 -106z
m-5099 139 c-3 -6 1 -7 10 -4 10 4 24 -2 36 -14 10 -12 26 -19 33 -16 8 3 25
0 38 -7 13 -7 27 -12 31 -11 5 1 6 -2 2 -8 -3 -5 2 -10 12 -11 16 0 16 -1 -2
-9 -11 -5 -15 -9 -10 -10 6 0 2 -5 -8 -11 -13 -7 -25 -6 -47 7 -16 10 -27 20
-25 24 11 18 -43 50 -87 50 -31 1 -32 1 -14 15 23 17 40 20 31 5z m5698 -377
c-13 -2 -35 -2 -50 0 -16 2 -5 4 22 4 28 0 40 -2 28 -4z m6243 -56 c57 -29
115 -88 134 -135 8 -20 10 -50 6 -79 -9 -64 -77 -203 -125 -256 -69 -75 -231
-147 -331 -147 -92 0 -124 41 -47 60 126 32 266 84 304 113 42 32 103 102 103
118 0 5 7 6 15 3 22 -9 55 53 55 103 0 45 -18 68 -27 34 -3 -12 -8 -21 -12
-22 -14 -2 -46 -8 -91 -19 -52 -12 -76 -5 -113 34 -13 15 -15 21 -5 28 8 5 1
8 -19 8 -18 0 -33 -4 -33 -10 0 -5 -7 -10 -15 -10 -8 0 -15 5 -15 11 0 24
-245 -54 -420 -134 -53 -24 -174 -71 -365 -142 -111 -41 -144 -56 -220 -100
-33 -19 -84 -46 -112 -61 -29 -14 -55 -30 -58 -35 -4 -5 -10 -9 -14 -9 -12 0
-53 79 -47 89 6 9 317 165 586 295 63 30 165 81 225 113 176 93 323 156 405
173 75 15 181 5 236 -23z m-11623 -150 c160 -81 295 -147 299 -147 4 0 31 -14
60 -31 29 -18 157 -85 283 -150 127 -64 268 -137 315 -162 47 -24 122 -57 168
-72 45 -15 82 -32 82 -38 0 -6 -43 -8 -117 -5 -108 5 -126 8 -208 43 -76 31
-359 173 -390 195 -14 10 -272 115 -320 130 -22 7 -89 35 -150 63 -203 91
-220 95 -374 86 -74 -5 -139 -13 -145 -19 -7 -7 -4 -10 10 -10 18 -1 18 -1 1
-11 -10 -6 -26 -7 -35 -3 -9 4 -26 8 -37 9 -11 1 -27 5 -36 9 -11 5 -22 -1
-34 -20 -14 -22 -16 -34 -7 -78 6 -28 9 -53 7 -54 -8 -8 -56 113 -61 152 -9
60 26 135 87 190 65 58 123 77 227 73 l83 -3 292 -147z m6905 137 c122 -25
214 -75 307 -169 160 -161 178 -216 176 -555 -1 -252 -9 -335 -38 -405 -21
-49 -143 -207 -198 -255 -22 -19 -61 -55 -87 -79 -38 -34 -57 -44 -93 -49 -25
-2 -44 -6 -42 -8 2 -2 30 -9 63 -15 35 -6 85 -26 125 -49 66 -39 199 -169 199
-194 0 -8 4 -16 8 -18 12 -4 57 -103 73 -158 10 -32 13 -123 14 -320 0 -265
-1 -278 -24 -345 -23 -65 -63 -129 -126 -200 -15 -16 -41 -50 -59 -74 -40 -56
-176 -168 -269 -223 -129 -75 -218 -103 -477 -147 -63 -11 -178 -33 -255 -50
-77 -16 -203 -39 -280 -51 -249 -38 -300 -47 -560 -99 -50 -10 -149 -26 -365
-56 -63 -9 -191 -33 -283 -52 -98 -21 -172 -32 -177 -27 -6 6 38 57 104 124
120 122 172 188 226 285 l33 60 9 375 c11 476 0 2007 -14 2035 -19 33 -170
185 -230 230 -76 57 -113 63 -179 30 -28 -15 -61 -37 -73 -49 -153 -161 -246
-271 -284 -339 -14 -23 -22 -55 -22 -83 0 -24 -4 -44 -10 -44 -5 0 -10 -11
-10 -24 0 -14 -4 -27 -9 -30 -12 -8 -23 -138 -16 -179 5 -23 15 -38 31 -46
l24 -11 -1 -372 c0 -205 -4 -382 -9 -393 -7 -16 -9 -13 -9 17 -1 20 -5 40 -11
43 -5 3 -10 21 -10 38 0 24 -3 28 -10 17 -5 -8 -10 -47 -10 -86 0 -122 -3
-127 -89 -183 -174 -113 -272 -208 -257 -247 10 -27 73 -27 159 -1 45 14 114
33 152 42 39 9 116 35 173 57 56 23 105 39 107 36 3 -2 -32 -43 -78 -89 -130
-135 -157 -169 -147 -188 13 -22 40 -124 51 -191 5 -30 8 -136 7 -235 -1 -99
-2 -213 -2 -253 0 -61 -3 -70 -13 -56 -7 10 -15 15 -19 12 -3 -4 38 -51 93
-106 69 -70 122 -113 182 -148 47 -27 86 -54 88 -60 4 -12 -61 -28 -177 -44
-41 -6 -97 -17 -125 -26 -43 -13 -108 -26 -400 -83 -27 -6 -104 -17 -170 -26
-66 -9 -138 -20 -160 -25 -22 -4 -78 -13 -125 -20 -47 -6 -102 -15 -122 -20
-28 -6 -40 -4 -49 6 -9 11 5 31 73 102 156 162 242 274 263 346 15 48 32 1823
18 1843 -5 7 -10 -19 -11 -63 -4 -153 -27 -250 -92 -386 -12 -27 -27 -45 -32
-42 -6 4 -7 -2 -3 -17 7 -22 6 -23 -10 -9 -18 15 -17 59 4 183 4 26 6 47 4 47
-7 0 -52 -111 -73 -181 -12 -41 -28 -90 -35 -109 -8 -19 -16 -48 -20 -65 -4
-16 -13 -43 -21 -60 -13 -28 -36 -88 -86 -224 -10 -30 -21 -66 -23 -80 -2 -14
-17 -61 -34 -104 -16 -43 -32 -96 -36 -117 -4 -21 -13 -44 -21 -51 -8 -6 -14
-23 -13 -38 l1 -26 10 30 c6 17 14 32 17 35 8 7 28 50 36 78 4 12 11 20 16 16
5 -3 6 -10 3 -16 -4 -6 -2 -8 4 -4 17 11 22 -9 11 -45 -22 -68 -32 -89 -40
-83 -5 3 -6 -2 -3 -10 8 -22 -15 -88 -28 -80 -6 4 -8 2 -4 -4 3 -6 -9 -44 -27
-84 -18 -40 -42 -99 -52 -130 -11 -34 -22 -53 -26 -46 -4 7 -9 -3 -12 -23 -3
-31 -4 -30 -5 9 -2 30 -6 42 -14 39 -7 -2 -12 -18 -12 -36 1 -17 -2 -28 -7
-25 -5 3 -9 -4 -9 -15 0 -12 -4 -21 -10 -21 -5 0 -10 -7 -10 -16 0 -8 5 -12
10 -9 6 3 10 3 10 0 0 -15 -33 -121 -40 -130 -5 -5 -11 -32 -15 -59 -5 -31
-10 -43 -16 -35 -19 31 -40 -25 -75 -199 -13 -68 -33 -140 -44 -161 -16 -32
-23 -38 -49 -36 -17 1 -34 5 -38 8 -7 7 5 51 63 237 19 63 37 132 40 153 4 35
3 37 -16 27 -11 -6 -20 -17 -20 -24 0 -17 -54 -40 -75 -32 -11 4 -15 -1 -15
-18 0 -17 -10 -27 -40 -41 -22 -10 -40 -23 -40 -29 0 -6 -11 -16 -25 -22 -22
-11 -25 -9 -34 17 -5 16 -15 29 -20 29 -6 0 -8 7 -5 15 4 8 1 15 -5 15 -6 0
-11 8 -11 18 0 14 2 15 10 2 5 -8 10 -10 10 -5 0 6 -4 17 -10 25 -8 12 -10 12
-16 -3 -4 -12 14 -70 50 -157 30 -76 57 -151 58 -167 4 -55 -2 -103 -12 -103
-31 0 -71 68 -165 280 -21 47 -49 110 -62 140 -14 30 -59 138 -99 240 -41 102
-81 199 -88 215 -15 34 -68 174 -121 320 -41 113 -53 146 -200 516 -117 299
-133 352 -140 465 -4 83 -43 218 -76 265 -44 63 -133 116 -439 262 -132 62
-157 71 -260 91 -42 8 -100 25 -130 39 -31 14 -68 29 -83 32 -15 4 -27 11 -27
15 0 13 172 47 395 80 116 17 239 35 275 41 36 5 144 26 240 46 183 38 386 72
433 72 34 1 35 -16 2 -29 -14 -5 -25 -17 -24 -27 0 -11 3 -13 6 -5 12 30 36 7
69 -65 34 -75 94 -243 98 -273 1 -8 14 -40 28 -70 15 -30 36 -84 48 -120 11
-36 44 -117 72 -180 63 -143 74 -169 83 -200 3 -14 10 -34 14 -45 4 -11 14
-36 21 -55 11 -32 62 -163 126 -330 59 -150 74 -204 74 -257 0 -38 4 -53 12
-51 7 3 37 83 68 179 31 96 71 210 89 254 50 124 77 194 105 270 39 109 72
196 90 240 18 41 55 144 82 225 8 25 26 72 39 105 13 33 36 94 50 135 15 41
30 84 35 95 46 109 140 402 140 436 0 31 20 38 190 68 63 11 183 34 265 50 83
16 218 41 300 56 83 14 195 37 250 50 117 28 185 39 361 60 71 8 165 22 209
31 44 8 98 19 120 24 134 26 333 63 410 76 49 8 144 26 210 39 66 13 161 31
210 40 50 9 106 20 125 25 19 4 96 20 170 33 313 59 470 89 550 107 106 23
199 25 298 4z m-7498 -433 c0 -5 17 -17 38 -28 62 -31 135 -75 172 -104 36
-27 207 -116 270 -139 19 -7 50 -24 69 -38 30 -22 32 -26 16 -35 -10 -5 -56
-7 -107 -5 -72 5 -95 10 -126 30 -20 14 -68 46 -107 71 -115 75 -282 257 -235
257 6 0 10 -4 10 -9z m11979 -508 c-2 -93 0 -108 17 -120 25 -18 90 -35 141
-37 52 -1 64 13 94 112 12 40 26 75 30 77 4 3 43 -14 86 -37 147 -78 151 -84
109 -166 -39 -78 -40 -86 -9 -122 15 -18 46 -41 69 -51 57 -26 95 -13 164 56
l56 56 67 -75 c37 -41 67 -77 67 -81 0 -4 -22 -28 -50 -54 -54 -51 -58 -66
-35 -111 35 -67 111 -81 168 -30 19 17 42 30 50 30 29 0 148 -204 129 -221 -4
-4 -45 -24 -92 -44 -47 -21 -90 -42 -97 -49 -9 -8 -9 -28 2 -86 27 -141 37
-150 157 -132 39 6 75 9 80 6 4 -3 8 -67 8 -143 l0 -138 -105 -6 c-58 -3 -110
-9 -115 -12 -6 -3 -10 -50 -10 -104 0 -120 12 -140 101 -172 33 -12 62 -26 65
-31 3 -4 -3 -34 -14 -66 -11 -31 -23 -76 -27 -99 -4 -24 -10 -45 -15 -48 -5
-3 -40 2 -79 12 -60 14 -75 15 -111 3 -48 -16 -52 -12 -69 55 -13 51 -37 110
-55 133 -8 11 -11 10 -17 -5 -7 -18 -4 49 6 137 6 52 1 44 -44 -75 -57 -152
-108 -238 -198 -337 -156 -173 -354 -270 -618 -305 -100 -13 -139 -14 -235 -5
-172 17 -317 73 -308 118 7 35 32 39 125 16 48 -12 133 -27 188 -33 96 -11
104 -11 210 16 219 54 289 81 400 156 146 97 250 219 341 399 63 124 79 191
78 340 -1 253 -92 484 -256 649 -77 78 -75 84 5 17 48 -40 147 -166 147 -186
0 -5 4 -10 8 -10 5 0 14 -10 20 -22 6 -13 11 -17 11 -11 2 31 -63 139 -116
194 -69 72 -204 176 -286 220 -79 42 -192 76 -302 90 -125 16 -336 -7 -467
-51 -121 -41 -218 -82 -218 -93 0 -5 3 -7 8 -5 111 56 257 99 330 97 29 -1 17
-6 -53 -23 -161 -39 -285 -97 -334 -155 -9 -11 -15 -12 -18 -4 -6 17 -32 5
-70 -30 -24 -22 -34 -27 -37 -16 -13 41 -56 226 -56 241 0 10 -12 43 -26 75
-14 32 -26 76 -27 98 l-2 39 50 10 c43 8 50 7 60 -10 19 -35 92 -101 116 -106
39 -7 83 9 114 42 25 27 30 39 28 78 -1 47 -19 98 -49 139 -15 21 -15 22 13
28 15 3 66 14 113 25 47 11 88 20 91 20 4 0 21 -38 38 -85 l33 -85 82 0 c50 0
87 5 94 12 8 8 12 46 12 105 l0 93 120 0 121 0 -2 -107z m-11389 -134 c3 -60
10 -102 19 -112 7 -10 34 -24 60 -32 25 -8 73 -24 106 -35 33 -11 73 -19 89
-18 28 3 41 21 93 126 4 10 64 -32 96 -67 43 -48 44 -54 17 -116 -18 -42 -18
-49 -5 -75 14 -27 69 -76 111 -98 11 -6 43 -14 70 -17 91 -13 87 7 78 -324 -4
-160 -11 -288 -15 -285 -5 3 -9 22 -9 42 0 50 -25 164 -45 206 -24 50 -76 108
-190 208 -91 82 -170 136 -181 125 -3 -2 19 -19 47 -38 50 -32 99 -74 99 -85
0 -9 -94 46 -147 85 -55 42 -126 71 -220 91 -62 13 -70 24 -29 40 20 8 20 9
-9 21 -42 17 -230 15 -340 -4 -147 -26 -245 -75 -421 -213 -103 -80 -174 -169
-219 -275 -20 -46 -40 -89 -46 -95 -33 -40 -53 -352 -28 -448 61 -236 125
-350 285 -510 116 -116 199 -162 368 -206 174 -45 283 -42 491 12 104 26 148
44 215 87 67 42 177 151 224 223 38 56 129 278 140 340 4 21 12 40 18 44 16
10 5 -313 -13 -351 -7 -16 -36 -61 -62 -100 -130 -186 -307 -311 -505 -356
-195 -45 -311 -47 -505 -8 -114 22 -143 34 -252 107 -181 121 -341 319 -399
496 -12 35 -15 10 -7 -44 9 -59 3 -98 -10 -64 -6 15 -8 12 -8 -13 -1 -17 -5
-34 -10 -37 -5 -4 -19 -26 -31 -51 -14 -29 -26 -42 -36 -38 -9 3 -14 -2 -14
-17 0 -16 4 -20 15 -16 26 10 19 -51 -7 -65 -13 -7 -36 -23 -51 -35 -56 -46
-77 -22 -80 89 -2 67 -4 72 -25 75 -45 7 -132 159 -132 233 0 27 6 32 64 58
35 16 71 39 80 52 17 25 20 96 8 179 -6 40 -11 46 -42 57 -19 7 -55 12 -80 13
-73 1 -74 3 -66 126 4 60 10 113 13 118 3 5 36 5 77 1 39 -5 87 -9 106 -9 l34
-1 26 92 c14 50 28 95 33 99 21 21 2 45 -73 93 -51 32 -80 57 -80 68 0 10 21
44 45 77 24 32 49 74 55 92 13 37 21 42 40 19 22 -27 119 -76 142 -73 17 2 33
22 62 81 44 90 43 103 -13 167 -22 25 -41 52 -41 60 0 10 19 22 54 34 50 17
55 17 79 2 13 -9 46 -41 72 -71 26 -30 52 -55 59 -55 7 0 33 13 59 30 40 25
47 34 47 63 0 18 -16 65 -35 105 l-34 72 34 14 c19 8 65 23 102 34 37 11 76
23 85 27 19 7 18 9 39 -109 16 -92 34 -111 103 -102 28 4 65 15 81 25 l30 17
5 115 5 114 90 6 c154 10 139 19 145 -92z m11437 -255 c-3 -3 -12 -4 -19 -1
-8 3 -5 6 6 6 11 1 17 -2 13 -5z m113 -34 c8 -5 11 -10 5 -10 -5 0 -17 5 -25
10 -8 5 -10 10 -5 10 6 0 17 -5 25 -10z m-11680 -88 c0 -4 21 -6 48 -5 40 2
43 1 17 -6 -16 -5 -66 -9 -110 -10 -44 -1 -109 -8 -145 -16 -36 -8 -74 -14
-85 -14 -56 1 121 43 220 52 22 2 43 4 48 5 4 1 7 -1 7 -6z m1113 -12 c14 -11
27 -20 30 -20 3 0 52 -28 109 -63 57 -35 151 -89 210 -120 193 -104 215 -137
194 -302 -5 -42 -4 -56 3 -45 18 27 36 16 43 -25 14 -76 22 -651 10 -659 -8
-5 -12 1 -13 16 -1 33 -27 99 -29 73 -8 -96 -8 -203 -1 -214 12 -19 27 -7 36
31 8 32 8 31 16 -22 4 -30 7 -116 7 -190 l-2 -135 -14 60 c-8 33 -17 89 -21
125 l-8 65 -2 -60 c-2 -42 -5 -54 -10 -40 -5 11 -6 -140 -4 -335 4 -271 8
-368 19 -409 13 -46 17 -51 27 -36 11 14 15 11 31 -25 19 -43 77 -93 247 -215
l84 -60 -65 -12 c-36 -7 -81 -16 -100 -19 -19 -3 -93 -16 -165 -29 -157 -28
-250 -42 -330 -50 -33 -3 -80 -10 -105 -16 -104 -22 -362 -72 -455 -88 -38 -7
-105 -19 -148 -28 -43 -8 -81 -12 -84 -9 -3 3 69 83 159 179 179 189 250 282
280 361 19 49 20 85 19 1126 0 883 -3 1088 -15 1143 -13 62 -12 67 4 67 9 0
29 -9 43 -20z m10261 -34 c43 -18 66 -51 66 -97 0 -44 -23 -68 -74 -76 -45 -7
-77 19 -102 82 -13 35 -14 47 -3 66 22 43 54 50 113 25z m-11327 -134 c18 -11
33 -58 33 -102 0 -50 -30 -72 -104 -78 -68 -5 -96 16 -103 78 -6 56 10 73 87
94 65 17 71 18 87 8z m10907 -73 c21 -84 25 -77 -88 -154 l-69 -46 -15 38
c-26 68 -26 109 -2 143 22 32 113 90 140 90 11 0 21 -22 34 -71z m906 13 c87
-88 131 -187 98 -220 -21 -21 -41 -13 -113 43 -38 29 -82 64 -97 75 -33 25
-34 44 -11 111 24 68 48 66 123 -9z m-11403 -110 c70 -38 151 -177 141 -244
-2 -19 -10 -24 -43 -26 -35 -3 -43 1 -72 35 -66 75 -98 135 -97 179 2 77 14
87 71 56z m-872 -46 c9 -71 -7 -117 -59 -172 -36 -37 -49 -44 -81 -44 -48 0
-75 23 -75 65 0 25 11 46 47 85 40 44 134 117 155 119 4 1 10 -23 13 -53z
m11830 40 c184 -39 330 -199 342 -373 9 -131 -47 -280 -139 -370 -90 -88 -270
-135 -383 -101 -38 12 -35 13 75 18 147 7 237 40 292 105 28 32 21 41 -9 13
-61 -58 -204 -104 -295 -96 -105 11 -86 47 38 73 48 10 101 25 119 34 46 23
128 95 160 141 26 37 27 44 23 127 -5 102 -25 150 -89 214 -64 64 -138 94
-229 93 -143 -1 -245 -80 -294 -226 -7 -23 -49 -23 -71 -1 -27 26 -12 96 38
178 70 116 168 167 352 183 6 1 37 -5 70 -12z m-11240 -165 c93 -46 140 -92
182 -179 38 -76 38 -78 38 -202 0 -168 -16 -219 -93 -300 -102 -108 -220 -157
-349 -146 -41 3 -86 12 -101 21 -25 13 -17 14 91 10 89 -4 126 -1 152 10 19 7
35 12 35 9 0 -3 6 0 13 6 21 18 87 60 95 60 4 0 15 11 24 25 16 20 11 19 -33
-11 -64 -43 -160 -73 -247 -76 -56 -2 -81 2 -142 27 -52 21 -75 26 -78 17 -7
-23 -27 -10 -78 51 -100 121 -127 215 -105 371 18 128 91 226 220 294 79 43
127 52 231 46 68 -3 97 -10 145 -33z m11220 -21 c29 -18 95 -114 95 -138 0
-12 -7 -13 -155 -18 -49 -2 -110 -4 -135 -6 l-45 -3 0 52 c1 61 23 98 76 126
41 22 117 16 164 -13z m-7958 -52 c-3 -8 -6 -5 -6 6 -1 11 2 17 5 13 3 -3 4
-12 1 -19z m31 -57 c-7 -2 -20 -14 -30 -25 -20 -24 -23 -9 -7 28 10 21 14 23
30 13 13 -8 15 -13 7 -16z m8572 -146 c0 -36 -5 -48 -24 -60 -45 -30 -74 13
-45 68 14 27 28 37 52 37 14 0 17 -9 17 -45z m-8654 -51 c-4 -9 -9 -15 -11
-12 -3 3 -3 13 1 22 4 9 9 15 11 12 3 -3 3 -13 -1 -22z m-4015 -94 c25 -46 25
-100 1 -100 -10 0 -23 -5 -28 -10 -25 -25 -54 67 -40 125 9 37 44 30 67 -15z
m1260 23 c14 -80 13 -171 0 -187 -30 -35 -41 -19 -41 58 0 92 8 136 26 136 8
0 15 -3 15 -7z m2744 -22 c-3 -6 -11 -11 -17 -11 -6 0 -6 6 2 15 14 17 26 13
15 -4z m-18 -30 c15 13 11 1 -34 -98 -9 -21 -25 -60 -35 -88 -10 -27 -16 -38
-14 -23 2 15 0 32 -4 39 -5 6 1 26 11 43 10 17 19 43 19 58 0 21 4 26 17 21
12 -5 15 -2 10 10 -3 9 -3 25 0 34 4 11 8 13 11 5 3 -10 7 -10 19 -1z m8643
-51 c12 -45 -5 -113 -40 -162 -11 -15 -20 -30 -20 -33 0 -3 -9 -15 -20 -27
-17 -19 -20 -19 -20 -5 0 9 -5 17 -11 17 -6 0 -8 -9 -4 -21 5 -14 4 -19 -4
-15 -6 4 -9 2 -6 -7 7 -17 -65 -99 -122 -138 -53 -37 -69 -29 -58 28 5 30 24
54 90 119 l83 81 4 73 c3 67 6 75 36 101 18 16 43 29 57 29 20 0 26 -7 35 -40z
m-12607 -123 c4 3 7 1 7 -6 0 -7 5 -9 10 -6 6 3 10 1 10 -5 0 -6 21 -33 47
-61 41 -44 46 -53 35 -70 -16 -26 -7 -39 26 -39 54 -1 120 -82 129 -159 5 -46
4 -51 -13 -51 -35 1 -103 38 -153 85 -54 51 -113 158 -132 241 -14 59 -7 93
15 75 7 -6 16 -8 19 -4z m3864 -47 c-1 -27 -3 -45 -5 -40 -2 6 -8 10 -14 10
-6 0 -7 -13 -3 -32 4 -22 3 -28 -3 -19 -6 8 -11 9 -13 2 -3 -7 -9 -7 -19 0
-13 8 -13 11 3 23 9 7 17 21 17 30 0 9 4 16 9 16 5 0 7 10 3 22 -3 14 -2 19 6
14 7 -4 12 -1 12 8 0 9 2 16 5 16 2 0 3 -22 2 -50z m-2641 -7 c-6 -52 -44 -97
-71 -87 -8 4 -15 1 -15 -6 0 -6 -4 -8 -10 -5 -39 24 37 140 94 144 5 1 6 -20
2 -46z m1071 -50 c-3 -10 -5 -4 -5 12 0 17 2 24 5 18 2 -7 2 -21 0 -30z m9433
-128 c0 -8 -4 -15 -10 -15 -5 0 -24 -13 -42 -29 -26 -22 -47 -30 -98 -36 -36
-4 -87 -13 -115 -20 -27 -7 -106 -23 -175 -35 -69 -12 -174 -32 -235 -45 -60
-13 -180 -35 -265 -50 -85 -14 -211 -37 -280 -51 -69 -15 -152 -30 -185 -34
-69 -9 -220 -37 -250 -45 -18 -6 -22 0 -32 47 -6 29 -10 54 -8 56 1 1 42 6 91
11 97 10 185 25 424 71 85 16 232 43 325 60 94 16 240 43 325 59 85 16 232 37
325 46 94 9 172 19 174 21 11 10 31 3 31 -11z m268 -10 c7 -14 12 -46 12 -71
0 -37 -6 -51 -29 -75 -53 -53 -121 -32 -121 37 0 68 47 134 95 134 24 0 34 -6
43 -25z m-10828 -3 c0 -14 -54 -83 -91 -119 -36 -34 -102 -67 -113 -56 -20 20
6 126 37 151 28 23 167 43 167 24z m11799 -115 c6 -26 11 -59 11 -72 0 -14 5
-34 12 -44 10 -16 5 -25 -30 -60 -22 -22 -45 -41 -51 -41 -5 0 -13 -9 -16 -20
-10 -32 -22 -24 -52 37 -16 32 -35 59 -44 61 -8 1 -46 -18 -84 -43 -39 -26
-79 -51 -90 -56 -43 -21 -66 -37 -80 -55 -8 -11 -14 -14 -15 -7 0 7 25 38 55
68 30 31 55 58 55 60 0 3 0 10 0 16 0 5 5 7 11 3 7 -4 9 0 5 14 -4 13 -2 24 7
29 8 4 19 18 26 31 6 12 18 22 26 22 8 0 15 4 15 9 0 13 57 34 75 27 9 -3 24
3 35 14 11 11 27 20 35 20 8 0 15 6 16 13 0 6 4 3 8 -8 7 -17 11 -14 27 24 20
49 22 47 43 -42z m-12317 -8 c29 -16 25 -99 -7 -133 -35 -37 -74 -35 -121 9
-34 32 -36 38 -31 77 8 57 29 71 91 63 27 -3 58 -11 68 -16z m12058 12 c0 -6
-4 -13 -10 -16 -5 -3 -10 1 -10 9 0 9 5 16 10 16 6 0 10 -4 10 -9z m-2892
-238 l-3 -118 -52 -3 c-44 -3 -53 0 -63 17 -7 15 -21 21 -45 21 -55 0 -249
-50 -262 -68 -15 -19 -17 -90 -3 -126 12 -32 42 -33 175 -10 117 21 197 15
229 -15 13 -13 34 -50 47 -82 18 -50 21 -72 16 -128 -9 -93 -29 -153 -67 -201
-62 -79 -121 -100 -395 -141 -185 -28 -181 -28 -176 -4 2 11 6 56 10 101 3 45
12 88 20 98 18 22 49 20 86 -4 17 -11 44 -20 61 -20 45 0 247 40 262 52 8 7
12 40 12 100 l0 89 -37 -6 c-21 -4 -65 -13 -98 -21 -130 -30 -166 -34 -209
-22 -91 26 -116 75 -116 232 0 111 0 112 37 175 48 79 72 97 175 123 76 19
356 75 386 77 10 1 12 -26 10 -116z m-9980 24 c6 -21 6 -35 1 -32 -5 4 -9 2
-9 -4 0 -5 -16 -31 -36 -56 -19 -26 -31 -44 -25 -40 9 5 16 -13 13 -37 -2 -14
29 -16 43 -2 8 8 19 13 25 9 5 -3 7 0 4 8 -10 26 70 36 109 15 28 -17 71 -48
65 -48 -3 0 -22 7 -41 15 -48 20 -76 19 -132 -5 -41 -17 -52 -19 -86 -8 -61
18 -65 29 -27 84 18 26 41 56 51 66 10 10 20 32 24 49 7 36 8 35 21 -14z
m11459 17 c13 -4 20 -11 16 -19 -9 -24 -122 -57 -338 -100 -71 -14 -206 -41
-300 -60 -93 -18 -231 -43 -305 -55 -74 -12 -173 -30 -220 -40 -47 -11 -88
-16 -91 -12 -4 4 -10 25 -14 48 l-6 40 163 28 c182 30 208 35 393 70 173 34
599 101 665 105 8 0 25 -2 37 -5z m-8970 -26 c-3 -8 -6 -5 -6 6 -1 11 2 17 5
13 3 -3 4 -12 1 -19z m6793 -104 c0 -122 -6 -134 -70 -134 -26 0 -50 5 -52 10
-2 6 -27 13 -55 17 -67 7 -85 -5 -72 -50 4 -18 13 -162 18 -322 8 -264 11
-294 30 -329 l21 -40 -113 -27 c-61 -16 -123 -33 -136 -39 -39 -18 -44 2 -14
66 l28 59 0 320 0 320 -30 -3 c-76 -7 -126 -24 -135 -48 -8 -20 -86 -71 -95
-62 -2 2 0 55 3 118 l7 114 40 7 c22 3 78 11 125 18 178 25 456 85 474 102 20
18 26 -6 26 -97z m-7690 73 c0 -10 11 -33 25 -51 31 -40 31 -53 3 -83 -30 -32
-53 -29 -101 13 -37 32 -46 35 -81 29 -40 -6 -109 -53 -126 -85 -16 -30 -12
-66 15 -132 14 -35 23 -68 21 -75 -3 -7 -19 -13 -36 -13 -17 0 -38 -4 -48 -10
-20 -11 -146 -60 -154 -60 -4 0 -10 30 -13 68 -4 37 -14 79 -22 95 -16 32 -43
34 -143 9 l-65 -17 2 -92 2 -93 -121 0 c-120 0 -120 0 -114 23 11 36 19 143
12 170 -5 22 -12 25 -73 30 -38 4 -93 10 -124 13 l-57 7 -16 -71 c-9 -39 -16
-81 -16 -93 0 -16 -4 -20 -17 -16 -107 34 -213 73 -213 78 0 4 20 37 45 73 25
37 45 71 45 75 0 4 6 8 14 8 10 0 14 -9 11 -28 -3 -24 1 -29 28 -38 57 -17 77
-19 77 -10 0 5 5 9 11 9 7 0 22 11 35 25 l23 25 118 -17 c65 -10 120 -21 121
-25 2 -5 17 -8 33 -8 21 0 29 -5 30 -17 1 -15 2 -15 6 -2 3 11 12 15 28 11 17
-3 27 1 31 12 3 9 15 16 26 16 11 0 26 7 34 15 11 11 26 13 55 9 32 -5 39 -4
39 10 0 11 9 16 28 16 29 1 88 29 62 30 -13 0 -13 1 0 10 9 6 17 5 21 -1 3 -6
13 1 23 15 9 14 23 26 31 26 7 0 30 10 50 21 30 18 40 20 61 10 17 -7 31 -8
42 -1 14 8 13 10 -8 10 -14 1 -19 4 -12 7 7 3 27 -1 43 -7 22 -10 27 -15 17
-21 -35 -23 69 8 123 37 16 8 29 11 29 7 0 -5 5 0 11 10 5 9 17 17 25 17 8 0
23 10 34 23 24 27 70 30 70 4z m11180 -202 c37 -23 -14 -74 -95 -96 -22 -6
-58 -20 -79 -30 -22 -11 -43 -16 -47 -12 -4 5 -12 33 -17 63 -23 121 -43 140
-125 114 -29 -9 -64 -25 -77 -36 -24 -19 -25 -26 -24 -119 1 -94 0 -100 -20
-103 -131 -23 -213 -32 -223 -23 -9 6 -13 40 -13 101 0 58 -5 98 -12 109 -10
13 -34 17 -113 19 l-100 3 -15 -92 c-11 -70 -18 -93 -30 -93 -8 0 -55 10 -103
21 -87 21 -109 37 -89 62 5 6 20 44 32 82 29 89 27 87 49 73 13 -8 19 -23 19
-45 0 -42 7 -50 27 -33 8 7 26 10 41 7 16 -3 24 0 21 7 -3 7 1 20 8 29 10 14
34 19 114 23 63 4 101 2 101 -4 0 -5 12 -13 26 -16 18 -5 31 -19 41 -45 12
-30 22 -40 44 -45 16 -3 36 -3 44 0 10 4 15 0 15 -10 0 -9 -8 -16 -20 -16 -11
0 -20 -4 -20 -10 0 -5 15 -10 34 -10 19 0 38 -4 41 -10 10 -16 45 -12 45 5 0
8 5 15 10 15 6 0 10 8 10 18 0 14 -2 15 -10 2 -8 -12 -10 -9 -10 13 0 15 5 27
11 27 5 0 8 4 5 9 -8 12 4 42 14 36 11 -7 33 22 25 35 -3 5 -2 10 4 10 5 0 11
10 13 23 2 17 9 21 31 19 31 -3 34 5 10 25 -16 12 -15 13 12 7 17 -4 32 -11
33 -16 2 -4 8 -8 13 -8 6 0 8 4 4 9 -3 5 0 13 5 16 16 10 60 -3 60 -18 0 -6
14 -21 30 -32 16 -11 30 -27 30 -35 0 -9 3 -11 8 -5 4 6 27 12 52 13 25 2 48
9 52 15 5 8 8 8 8 -2 0 -29 29 24 30 54 0 27 4 23 30 -32 16 -34 34 -64 40
-68z m-4389 16 c55 -36 105 -87 118 -124 6 -16 11 -82 11 -148 0 -138 -7 -157
-75 -216 l-46 -39 16 -39 c36 -91 76 -154 138 -222 44 -47 41 -63 -8 -63 -34
0 -115 -22 -147 -40 -10 -6 -20 -10 -22 -10 -3 0 -36 64 -74 143 -38 78 -76
148 -84 155 -11 9 -23 10 -41 3 -30 -12 -87 -10 -87 2 0 12 -41 4 -42 -8 0 -5
3 -54 7 -107 6 -83 11 -106 40 -161 19 -36 31 -68 28 -71 -4 -3 -36 -6 -73 -6
-36 0 -93 -7 -125 -16 -110 -30 -105 -30 -105 7 0 19 6 45 13 59 24 46 35 172
36 431 1 252 1 257 -23 310 -14 30 -28 66 -31 80 -6 26 -6 26 67 32 40 4 150
22 243 41 94 19 181 35 196 35 14 1 45 -12 70 -28z m-7546 -11 c0 -7 -6 -15
-12 -17 -8 -3 -13 4 -13 17 0 13 5 20 13 18 6 -3 12 -11 12 -18z m6595 -143
c0 -35 31 -122 77 -217 32 -66 32 -66 78 -200 82 -238 98 -278 136 -343 21
-38 39 -74 39 -81 0 -8 -30 -16 -82 -22 -46 -6 -104 -19 -130 -29 -26 -11 -50
-16 -54 -12 -4 3 3 33 15 65 24 67 27 120 8 146 -12 17 -19 17 -138 -4 -68
-13 -148 -25 -177 -28 -45 -4 -55 -8 -63 -29 -16 -42 -11 -91 11 -106 13 -9
21 -27 23 -53 l2 -39 -70 -7 c-61 -7 -114 -22 -189 -53 -17 -8 -19 -5 -14 26
3 19 20 66 38 104 32 69 45 107 90 255 36 119 56 178 95 285 20 55 48 133 62
173 l25 72 -21 36 c-12 20 -20 38 -18 40 2 2 34 8 73 14 38 5 89 16 114 24 66
21 70 20 70 -17z m-582 -127 c82 -59 102 -113 102 -276 0 -116 -1 -122 -29
-166 -61 -96 -245 -179 -403 -182 l-68 -1 0 -103 0 -103 35 -35 c21 -21 35
-44 35 -59 0 -22 -4 -25 -39 -25 -21 0 -89 -13 -150 -29 -60 -16 -113 -26
-116 -23 -15 15 -3 81 22 117 l28 40 7 330 8 330 -30 56 c-17 31 -30 61 -30
66 0 5 48 15 108 21 59 7 170 26 247 42 187 38 221 38 273 0z m3875 -8 c-88
-31 -242 -59 -469 -87 -50 -6 -52 -6 -58 21 -17 66 53 82 342 81 200 -1 220
-3 185 -15z m-7366 -44 c-3 -8 -6 -5 -6 6 -1 11 2 17 5 13 3 -3 4 -12 1 -19z
m8043 -58 c0 -5 -5 -10 -11 -10 -5 0 -7 5 -4 10 3 6 8 10 11 10 2 0 4 -4 4
-10z m69 -22 c6 -7 24 -14 39 -15 45 -2 74 -10 162 -46 47 -19 119 -47 160
-63 67 -26 75 -32 78 -58 4 -28 3 -28 -35 -22 -56 11 -204 70 -318 128 -55 28
-110 56 -122 62 -13 6 -23 14 -23 19 0 12 45 8 59 -5z m-5503 -20 c40 -31 92
-88 108 -118 10 -18 15 -93 18 -273 7 -314 6 -325 -47 -401 -47 -69 -94 -100
-175 -116 -30 -6 -110 -25 -178 -42 -140 -34 -135 -36 -218 48 -71 73 -76 103
-66 405 9 250 9 255 36 304 34 63 90 121 139 146 21 11 79 28 130 39 182 37
214 38 253 8z m6442 -37 c53 -27 119 -97 149 -159 31 -64 37 -150 11 -175 -14
-14 -17 -14 -22 -2 -8 21 -23 19 -29 -4 -4 -16 -10 -17 -63 -10 -33 5 -73 6
-90 3 -18 -3 -56 3 -94 15 -35 12 -90 21 -122 21 -70 0 -70 -1 -28 -120 23
-67 38 -93 71 -124 39 -37 43 -38 94 -33 75 8 136 38 200 98 42 40 55 48 55
33 0 -26 -39 -88 -70 -112 -48 -37 -114 -64 -169 -69 l-56 -5 -79 88 c-104
117 -120 152 -120 274 -1 83 3 103 27 155 34 73 60 102 112 126 56 25 174 25
223 0z m-7094 -56 c-3 -20 -9 -79 -13 -133 l-6 -97 -44 2 c-31 1 -48 8 -58 23
-15 22 -55 26 -96 11 l-25 -10 -4 -188 c-3 -103 -1 -253 4 -333 8 -142 9 -145
38 -175 30 -31 37 -50 22 -59 -4 -2 -46 -9 -92 -16 -99 -13 -145 -26 -181 -51
-31 -22 -39 -17 -39 26 0 20 11 46 29 69 36 44 38 68 47 434 5 194 3 272 -4
272 -32 0 -114 -38 -175 -81 -39 -27 -75 -49 -82 -49 -9 0 -11 28 -8 103 6
152 1 143 85 157 167 28 467 91 523 109 86 27 87 27 79 -14z m-4621 -50 c62
-32 89 -62 126 -140 38 -78 47 -134 27 -160 -9 -11 -16 -34 -16 -52 0 -45 -16
-80 -63 -143 -54 -70 -57 -74 -102 -104 -81 -55 -164 -22 -271 109 -59 73 -79
126 -79 210 1 145 61 250 165 285 79 28 151 26 213 -5z m3847 -87 c0 -7 -7
-35 -15 -63 -12 -37 -18 -136 -25 -377 l-10 -326 -28 -53 c-41 -81 -88 -124
-152 -141 -259 -70 -314 -72 -385 -13 -78 63 -76 55 -74 414 1 204 -2 324 -9
337 -5 10 -26 34 -46 52 -20 18 -34 37 -32 41 3 4 45 13 93 21 48 7 108 19
131 27 24 8 46 12 48 10 3 -2 0 -24 -5 -48 -6 -25 -11 -186 -11 -367 0 -287 2
-323 16 -329 22 -8 201 25 245 46 l34 16 8 110 c4 61 6 205 5 320 -3 198 -5
212 -26 247 -27 43 -28 42 77 53 36 4 81 13 100 21 46 16 61 17 61 2z m-3292
-27 c-28 -39 -172 -201 -179 -201 -20 0 -17 24 11 77 46 88 136 163 173 145 4
-2 2 -11 -5 -21z m9892 -150 c109 -56 253 -135 435 -241 88 -51 190 -110 227
-130 36 -21 122 -71 190 -112 116 -71 219 -131 298 -175 19 -11 62 -35 95 -53
128 -71 205 -120 336 -212 74 -52 146 -101 158 -108 46 -24 147 -107 242 -196
53 -50 138 -119 190 -153 52 -35 96 -67 97 -72 6 -16 -24 -9 -71 15 -26 14
-78 29 -122 35 -70 10 -179 45 -230 73 -69 39 -236 121 -312 153 -224 95 -655
318 -1023 530 -63 37 -188 107 -278 156 -90 49 -205 115 -255 147 -89 56 -203
122 -337 195 -123 67 -319 199 -302 205 6 2 28 -8 49 -22 21 -14 42 -26 48
-26 5 0 22 -7 37 -14 67 -35 275 -27 327 12 15 11 27 28 27 38 1 11 2 22 3 26
1 9 69 -20 171 -71z m-7679 -41 c6 -33 84 -295 114 -385 8 -22 32 -85 55 -140
23 -55 50 -124 60 -153 10 -29 33 -74 49 -99 47 -70 45 -74 -49 -88 -25 -4
-74 -18 -109 -31 -42 -16 -67 -21 -71 -14 -4 6 -2 41 2 77 5 37 7 83 3 101 -6
31 -9 34 -33 29 -15 -4 -90 -14 -167 -23 -77 -10 -143 -22 -147 -28 -16 -23
-7 -85 18 -130 35 -62 28 -76 -36 -76 -55 0 -184 -25 -212 -40 -27 -15 -38
-12 -38 10 0 25 31 87 57 115 28 31 62 118 168 440 26 77 59 165 73 195 29 62
37 179 15 201 -26 26 -13 34 55 36 43 1 83 8 112 21 59 27 73 24 81 -18z
m-581 -184 c0 -34 -4 -46 -17 -49 -42 -12 -123 -28 -183 -36 -36 -5 -132 -21
-215 -35 -82 -13 -199 -32 -260 -41 -110 -16 -385 -65 -525 -92 -41 -8 -133
-17 -203 -19 -110 -3 -131 -6 -154 -24 -14 -11 -30 -20 -34 -20 -19 0 -89 -35
-93 -47 -3 -7 0 -13 6 -13 7 0 6 -5 -2 -15 -11 -13 -7 -15 28 -15 59 0 102
-11 102 -25 0 -26 -63 -65 -258 -163 -108 -55 -249 -130 -312 -167 -218 -129
-666 -348 -795 -389 -190 -60 -195 -62 -285 -100 -46 -20 -89 -35 -93 -33 -5
1 17 25 49 52 33 27 104 90 159 141 122 111 346 282 521 396 164 108 568 360
614 383 72 37 328 95 419 95 35 0 94 9 130 20 83 24 506 101 711 130 85 11
218 33 295 47 122 22 346 59 383 62 8 1 12 -14 12 -43z m6693 -212 c53 -27
147 -65 226 -90 62 -20 149 -17 244 7 45 12 98 21 118 21 38 -1 128 -43 264
-123 138 -82 192 -113 348 -196 87 -46 188 -102 225 -125 111 -68 223 -133
517 -298 154 -86 336 -190 405 -229 69 -40 143 -83 165 -96 22 -12 91 -52 153
-89 61 -36 163 -96 225 -132 61 -36 127 -80 145 -97 66 -64 218 -351 267 -507
10 -30 42 -97 73 -148 30 -51 52 -95 48 -99 -3 -3 -23 1 -43 9 -21 8 -69 23
-106 32 -64 15 -226 85 -200 86 6 0 19 3 29 7 11 4 15 2 11 -4 -4 -7 16 -10
59 -9 45 1 67 5 74 16 8 12 10 12 16 -3 10 -28 34 -20 34 12 0 29 -25 69 -70
109 -81 74 -457 316 -700 452 -102 57 -275 157 -385 223 -110 66 -261 153
-335 194 -74 41 -216 123 -315 183 -177 106 -277 163 -405 232 -195 105 -246
134 -367 205 -73 43 -172 101 -220 128 -48 28 -139 84 -203 126 -63 41 -146
94 -185 118 -139 84 -180 111 -172 111 4 0 31 -12 60 -26z m1131 -23 c-2 -3
-12 3 -22 13 -16 17 -16 18 5 5 12 -7 20 -15 17 -18z m-7864 -5 c0 -18 -55
-64 -83 -71 -12 -3 -51 -10 -87 -16 -68 -11 -100 -16 -295 -43 -169 -25 -366
-60 -535 -95 -149 -32 -247 -39 -281 -21 -47 26 0 51 137 74 49 8 127 25 174
36 151 36 271 58 435 80 88 12 232 32 320 44 200 29 215 30 215 12z m7930 -21
c7 -8 9 -15 6 -15 -4 0 -14 7 -22 15 -9 8 -11 15 -6 15 5 0 15 -7 22 -15z m50
-30 c7 -8 8 -15 2 -15 -5 0 -15 7 -22 15 -7 8 -8 15 -2 15 5 0 15 -7 22 -15z
m67 -41 c-3 -3 -12 -4 -19 -1 -8 3 -5 6 6 6 11 1 17 -2 13 -5z m303 -168 c0
-2 -9 -2 -20 1 -11 3 -20 9 -20 15 0 5 9 4 20 -2 11 -6 20 -12 20 -14z m-2175
-58 c4 -35 12 -69 17 -75 14 -18 69 -16 135 3 92 27 153 1 210 -89 l25 -40 54
7 54 6 25 -40 c14 -22 25 -43 25 -47 0 -5 15 -24 33 -43 67 -74 66 -73 77
-180 12 -114 17 -127 68 -184 l34 -39 -5 -81 c-4 -60 -13 -100 -36 -155 -17
-40 -31 -85 -32 -100 0 -23 -1 -24 -8 -6 -5 11 -20 32 -34 47 -14 15 -34 49
-44 76 -10 27 -22 50 -28 51 -5 1 -15 -22 -23 -51 -7 -29 -17 -71 -23 -93 -5
-22 -30 -80 -54 -130 -63 -132 -158 -219 -318 -293 -124 -58 -290 -69 -406
-27 -130 47 -341 181 -393 250 -31 42 -58 58 -58 34 0 -14 26 -40 33 -33 3 3
3 -3 0 -14 -2 -11 0 -23 5 -26 6 -3 8 -16 4 -28 -3 -14 -1 -19 6 -14 6 4 11
-1 11 -11 -1 -10 3 -29 7 -42 5 -16 4 -22 -4 -17 -6 3 -31 -1 -57 -9 -25 -9
-63 -15 -83 -13 -36 3 -37 4 -40 46 -2 24 2 49 7 56 17 21 -18 144 -98 344
-29 72 -27 159 4 275 38 141 45 158 81 195 38 39 42 67 18 113 -46 89 24 201
115 183 45 -9 70 0 131 51 52 43 58 45 116 45 69 0 164 16 177 29 5 5 12 33
15 62 l7 54 80 6 c44 3 99 6 122 7 l41 2 7 -62z m-2541 -14 c19 -51 27 -652
25 -2039 -1 -1435 2 -1687 27 -1831 10 -63 -46 -258 -68 -236 -5 5 -21 52 -34
104 -17 64 -54 152 -119 283 -51 105 -104 213 -117 240 l-23 50 -3 1240 c-4
1346 1 1665 24 1665 8 0 17 -8 20 -17 17 -55 25 -67 35 -52 7 11 9 10 9 -6 1
-20 1 -20 10 0 11 29 35 47 57 44 10 -2 37 9 60 23 39 26 42 31 52 95 15 96
20 179 21 326 0 116 8 153 24 111z m4856 -4 c0 -5 -2 -10 -4 -10 -3 0 -8 5
-11 10 -3 6 -1 10 4 10 6 0 11 -4 11 -10z m-9157 -15 c4 -8 3 -17 -2 -19 -17
-11 -314 -66 -417 -77 -110 -12 -144 -9 -144 10 0 26 57 43 226 66 281 38 329
41 337 20z m601 9 c9 -3 16 -14 16 -23 0 -33 -42 -44 -310 -87 -192 -30 -300
-39 -320 -25 -23 17 -3 25 107 45 54 10 136 26 183 37 104 23 269 56 292 58 9
0 23 -2 32 -5z m8616 -24 c14 -11 20 -20 14 -20 -6 0 -17 7 -24 15 -7 8 -16
12 -21 9 -5 -3 -9 0 -9 5 0 16 12 13 40 -9z m74 -29 c3 -5 -1 -11 -9 -14 -9
-4 -12 -1 -8 9 6 16 10 17 17 5z m86 -72 c0 -14 -16 -11 -29 5 -10 12 -8 13 8
9 12 -3 21 -9 21 -14z m-6888 -78 c16 -2 48 -71 48 -104 0 -26 -6 -39 -26 -51
-38 -26 -28 -55 25 -75 60 -22 86 -71 95 -179 6 -68 10 -82 27 -87 37 -12 49
-35 49 -90 0 -71 -18 -151 -37 -167 -13 -11 -20 -8 -43 20 -14 17 -30 32 -35
32 -5 0 -16 7 -26 16 -23 21 -33 14 -48 -38 -75 -252 -110 -324 -202 -422 -74
-79 -144 -128 -234 -162 -61 -23 -85 -27 -185 -27 -104 0 -123 3 -205 32 -127
45 -209 97 -296 188 -78 82 -105 121 -160 236 -17 37 -37 67 -43 67 -6 0 -17
-17 -23 -39 -14 -43 1 -105 24 -97 9 4 10 -1 3 -18 -6 -16 -3 -35 10 -63 10
-22 21 -54 25 -72 3 -17 11 -33 16 -36 11 -8 12 -25 1 -25 -5 0 -15 12 -23 28
-7 15 -31 56 -53 92 -60 100 -78 149 -73 194 8 61 -3 106 -28 116 -57 22 -72
114 -36 213 62 171 108 264 137 283 13 9 65 18 127 23 58 5 110 12 116 16 20
12 11 -6 -23 -48 -141 -177 -192 -396 -130 -569 48 -135 90 -203 178 -285 134
-126 305 -192 467 -178 139 11 210 38 301 114 120 101 212 241 238 360 19 92
9 309 -19 392 -32 93 -71 165 -122 224 -53 62 -145 135 -170 135 -10 0 -20 4
-23 9 -7 11 17 21 52 22 15 0 47 6 72 12 34 9 205 14 252 8z m3124 -593 c-6
-629 -18 -1011 -34 -1098 -6 -30 -14 -71 -17 -90 l-7 -35 20 31 c11 17 31 34
45 38 14 3 27 15 30 28 4 12 9 19 13 15 10 -10 -40 -81 -110 -157 -33 -36 -78
-84 -98 -108 -21 -23 -40 -42 -43 -42 -9 0 -1 1883 8 1900 11 22 148 100 175
100 l24 0 -6 -582z m-611 445 c5 -10 10 -151 12 -313 5 -334 17 -436 20 -177
2 95 6 188 11 207 l8 35 27 -27 27 -27 7 27 7 27 6 -25 c4 -16 9 8 13 65 8
104 17 139 35 143 10 2 13 -117 11 -630 -1 -348 -5 -655 -8 -683 l-7 -50 -8
55 c-4 30 -11 82 -15 115 -4 33 -9 52 -9 43 -1 -10 -6 -18 -12 -18 -5 0 -10
-7 -10 -15 0 -8 -9 -15 -20 -15 -17 0 -20 7 -20 39 0 22 -5 41 -12 43 -8 3
-13 35 -15 94 -3 103 -13 198 -19 191 -16 -16 -25 -243 -28 -744 -3 -548 -5
-582 -24 -650 -11 -40 -19 -73 -16 -73 2 0 18 24 34 54 31 54 172 195 178 177
8 -23 -192 -256 -211 -244 -5 3 -7 2 -4 -4 11 -18 -110 -182 -136 -183 -17 0
-17 55 -12 1208 3 664 7 1218 9 1232 3 14 5 42 5 63 1 20 6 37 12 37 5 0 8 -4
5 -9 -10 -15 18 -29 48 -24 15 3 42 21 60 39 36 38 41 40 51 17z m-5475 -43
c0 -6 -11 -16 -25 -22 -14 -6 -24 -16 -22 -22 15 -46 206 -62 362 -31 37 8 39
7 26 -9 -8 -10 -51 -36 -95 -58 -45 -22 -106 -57 -136 -78 -69 -46 -374 -229
-500 -300 -52 -29 -113 -66 -135 -80 -22 -15 -88 -53 -147 -84 -59 -31 -133
-73 -165 -94 -32 -21 -110 -71 -173 -111 -316 -200 -535 -351 -567 -391 -7 -8
-13 -31 -13 -50 -1 -53 -11 -82 -26 -76 -9 3 -14 -1 -14 -12 0 -24 -37 -55
-43 -38 -15 40 83 242 217 445 198 302 271 375 531 526 55 32 150 88 210 125
239 147 579 331 660 356 51 16 55 16 55 4z m2514 -56 c74 -39 168 -119 196
-167 32 -56 80 -231 80 -292 0 -157 -141 -340 -313 -404 -74 -27 -112 -26
-214 4 -195 57 -273 127 -337 303 -53 147 -25 289 86 439 44 60 89 93 175 129
52 22 69 24 164 21 94 -3 112 -7 163 -33z m1649 -175 c49 -10 57 -15 61 -38 9
-43 12 -2259 3 -2267 -9 -9 -53 40 -107 123 -23 34 -47 64 -54 66 -8 3 -35 34
-61 69 -27 35 -76 92 -110 128 l-62 65 8 120 c4 66 10 440 13 830 4 391 9 725
13 743 3 17 10 32 15 32 6 0 48 18 94 39 61 29 84 45 84 58 0 21 18 43 35 43
7 0 37 -5 68 -11z m-651 -70 c2 -6 27 -14 56 -17 29 -2 56 -10 60 -16 9 -14 9
-1486 0 -1486 -4 0 -28 31 -55 68 -26 38 -67 91 -89 118 -23 27 -62 73 -85
101 -24 29 -60 72 -80 95 -36 43 -36 43 -29 108 4 36 11 252 14 481 4 229 11
429 16 445 4 16 9 26 9 22 1 -4 13 4 28 18 14 13 44 27 65 30 23 4 43 14 49
25 11 21 35 25 41 8z m4851 -13 c37 -27 203 -127 292 -175 33 -18 86 -50 117
-72 32 -21 62 -39 68 -39 5 0 10 -6 10 -12 1 -7 24 -24 53 -38 28 -14 70 -39
92 -55 95 -71 244 -157 437 -252 183 -90 332 -179 473 -284 22 -17 54 -39 70
-49 45 -29 5 -26 -54 4 -25 13 -66 33 -91 44 -25 11 -81 43 -123 72 -43 28
-86 54 -95 57 -9 4 -39 21 -67 38 -27 18 -90 54 -140 80 -245 130 -401 219
-511 291 -66 43 -140 90 -162 104 -23 14 -92 57 -152 95 -60 39 -128 81 -151
95 -50 30 -109 88 -109 107 0 18 7 17 43 -11z m-7143 -61 c-21 -25 -71 -58
-65 -43 3 7 20 23 38 35 39 26 43 28 27 8z m-86 -66 c-4 -7 -114 -81 -304
-204 -112 -73 -410 -255 -417 -255 -3 0 -17 -8 -31 -18 -15 -10 -76 -45 -137
-77 -123 -65 -259 -142 -383 -217 -45 -28 -85 -48 -88 -45 -5 5 96 83 161 125
11 7 34 21 50 32 74 47 228 140 330 200 17 9 54 31 83 49 29 17 55 31 58 31 3
0 20 11 38 25 18 14 36 25 40 25 4 0 26 13 49 29 41 28 192 117 279 164 72 39
223 128 230 135 10 10 48 10 42 1z m3916 -594 c0 -198 -4 -396 -8 -440 -5 -44
-10 -63 -11 -42 0 20 -1 39 -1 42 -1 2 -7 17 -15 32 -10 19 -14 63 -13 158 1
72 -2 136 -5 142 -4 6 -2 98 3 204 10 201 13 236 26 329 l8 55 8 -60 c4 -33 8
-222 8 -420z m3380 400 c18 -10 40 -24 48 -31 7 -8 17 -14 22 -14 21 0 209
-123 203 -133 -3 -5 -2 -7 4 -4 11 7 62 -17 110 -51 17 -12 36 -22 42 -22 6 0
11 -8 12 -17 0 -10 3 -13 6 -6 3 8 10 9 21 3 9 -5 39 -19 65 -30 26 -11 45
-25 42 -29 -3 -5 9 -14 27 -20 36 -13 153 -86 180 -113 10 -10 21 -18 26 -18
4 0 22 -13 40 -30 18 -16 31 -30 29 -30 -11 0 -84 33 -97 45 -8 7 -33 18 -55
25 -22 7 -59 26 -83 41 -24 16 -45 29 -47 29 -3 0 -31 17 -62 37 -32 21 -78
48 -103 62 -25 13 -47 27 -50 30 -8 9 -83 52 -102 58 -10 3 -18 9 -18 14 0 5
-5 9 -11 9 -30 0 -245 144 -296 199 -27 28 -31 51 -5 29 9 -9 33 -23 52 -33z
m-7960 -65 c0 -5 -2 -10 -4 -10 -3 0 -8 5 -11 10 -3 6 -1 10 4 10 6 0 11 -4
11 -10z m-40 -20 c0 -5 -7 -10 -16 -10 -8 0 -12 5 -9 10 3 6 10 10 16 10 5 0
9 -4 9 -10z m-40 -29 c0 -9 -41 -23 -49 -16 -3 4 28 20 47 24 1 1 2 -3 2 -8z
m620 -40 c0 -9 -41 -23 -49 -16 -3 4 28 20 47 24 1 1 2 -3 2 -8z m-62 -38
c-10 -2 -18 -8 -18 -13 0 -11 -223 -150 -345 -215 -49 -26 -117 -63 -150 -81
-88 -49 -180 -94 -193 -94 -23 0 1 28 54 66 31 22 75 53 99 71 37 27 124 75
334 185 30 15 61 28 68 28 7 0 13 4 13 8 0 11 65 40 100 45 35 6 59 6 38 0z
m6920 -93 c-32 -67 -59 -103 -93 -122 -20 -11 -20 -10 -2 10 10 11 19 27 21
35 1 8 16 31 34 51 17 20 39 50 48 67 29 57 23 24 -8 -41z m-6118 -75 c7 -9
10 -18 7 -22 -8 -7 -37 15 -37 28 0 14 16 11 30 -6z m4487 -52 c-3 -10 -5 -4
-5 12 0 17 2 24 5 18 2 -7 2 -21 0 -30z m827 -77 c14 -7 34 -24 45 -37 18 -24
24 -25 107 -22 48 2 94 9 101 15 10 8 13 0 13 -40 0 -78 -4 -82 -69 -81 -31 1
-81 4 -111 7 l-55 7 0 55 0 55 -55 -1 c-30 -1 -75 -5 -100 -9 -25 -4 -56 -2
-70 4 -22 8 -18 10 28 10 28 1 52 6 52 11 0 6 8 10 18 10 13 0 50 16 68 29 1
1 13 -5 28 -13z m1296 -9 c0 -2 -35 -26 -77 -53 -133 -84 -390 -319 -476 -434
-23 -30 -53 -64 -67 -75 -14 -11 -88 -83 -165 -160 -217 -217 -295 -287 -553
-493 -168 -135 -289 -225 -348 -260 -99 -58 -215 -146 -310 -237 -12 -11 -45
-40 -74 -65 -29 -25 -66 -58 -84 -75 -17 -16 -43 -38 -56 -47 -21 -15 -23 -19
-10 -27 13 -9 13 -11 -2 -11 -10 0 -18 -6 -18 -14 0 -8 -37 -32 -82 -54 -87
-41 -138 -58 -138 -45 0 12 87 111 145 165 27 25 104 92 170 148 193 163 235
201 311 275 40 39 141 135 224 215 340 323 402 381 519 486 25 21 110 100 191
174 80 74 170 156 200 181 30 26 87 73 125 105 39 32 79 67 90 77 75 70 294
200 371 220 22 5 114 9 114 4z m-6998 -30 c35 -13 124 -62 198 -110 139 -89
229 -170 491 -442 53 -55 167 -167 255 -250 87 -82 251 -238 364 -345 113
-107 245 -231 294 -275 49 -44 94 -85 100 -90 12 -12 188 -160 226 -190 102
-84 346 -322 338 -331 -4 -3 -33 4 -64 16 -58 24 -131 76 -195 140 -43 42
-154 139 -183 159 -46 32 -251 185 -256 191 -3 3 -53 43 -111 87 -58 45 -146
117 -195 160 -49 43 -172 148 -274 233 -372 312 -468 411 -537 552 -23 49 -41
71 -59 79 -15 5 -85 67 -156 137 -84 82 -166 152 -235 199 -58 39 -113 78
-121 87 -15 15 -13 16 20 16 21 0 65 -10 100 -23z m885 -42 c-9 -9 -14 -10
-19 -1 -13 19 -9 24 11 19 16 -4 17 -8 8 -18z m-251 6 c-3 -5 -15 -7 -26 -4
-28 7 -25 13 6 13 14 0 23 -4 20 -9z m3611 -53 c-3 -7 -5 -2 -5 12 0 14 2 19
5 13 2 -7 2 -19 0 -25z m-4463 -77 c104 -54 205 -122 247 -167 41 -45 89 -173
89 -236 0 -63 -55 -187 -122 -277 -63 -83 -193 -132 -270 -101 -47 19 -166
113 -208 164 -80 97 -132 280 -110 390 16 81 50 155 91 194 39 38 123 81 160
82 14 0 69 -22 123 -49z m7478 30 c52 -22 122 -96 147 -154 10 -23 26 -75 36
-116 15 -64 16 -82 5 -143 -19 -106 -58 -174 -156 -267 -88 -85 -164 -131
-220 -131 -42 0 -184 71 -223 111 -17 19 -50 71 -73 116 -40 80 -41 86 -41
180 0 137 22 191 111 275 137 128 298 179 414 129z m2325 3 c-3 -3 -12 -4 -19
-1 -8 3 -5 6 6 6 11 1 17 -2 13 -5z m-8674 -11 c-7 -2 -19 -2 -25 0 -7 3 -2 5
12 5 14 0 19 -2 13 -5z m-3598 -42 c-17 -16 -106 -63 -136 -71 -31 -9 -69 -3
-69 11 0 5 7 9 16 9 8 0 12 5 9 10 -4 6 8 10 28 10 22 0 37 6 41 15 6 17 42
20 51 5 4 -6 12 -4 21 5 9 8 23 15 32 15 10 0 12 -3 7 -9z m7579 -40 c3 -5 -1
-14 -8 -20 -12 -10 -13 -8 -9 8 6 23 9 25 17 12z m402 -124 c-9 -45 -47 -116
-79 -147 -62 -60 -17 -47 88 26 141 97 238 154 263 154 11 0 51 -13 90 -30 38
-16 99 -35 136 -42 40 -8 66 -18 66 -25 0 -7 -5 -13 -11 -13 -9 0 -97 -73
-169 -140 -70 -65 -113 -100 -118 -96 -3 3 11 22 31 41 64 62 22 46 -68 -26
-49 -39 -94 -76 -101 -83 -22 -22 -100 -92 -189 -171 -50 -44 -162 -152 -251
-240 -88 -88 -191 -187 -229 -220 -38 -33 -107 -100 -154 -149 -48 -49 -140
-145 -206 -213 -120 -125 -205 -228 -205 -250 0 -6 -31 -42 -70 -79 -71 -69
-100 -91 -100 -77 0 21 293 589 344 667 60 93 150 216 182 251 45 47 183 202
205 229 13 16 38 46 55 65 98 115 330 416 417 541 34 49 53 67 63 63 12 -4 14
-14 10 -36z m-3948 -19 c62 -23 63 -23 95 -5 35 21 125 33 143 20 7 -4 56 -78
109 -163 167 -265 268 -399 490 -647 44 -50 107 -123 141 -164 61 -75 257
-375 286 -439 9 -19 28 -62 43 -95 15 -33 45 -97 66 -142 62 -131 51 -148 -33
-51 -29 34 -109 120 -178 192 -69 72 -145 154 -169 181 -114 132 -462 492
-536 554 -60 52 -124 109 -185 165 -30 29 -98 87 -150 131 -52 43 -133 113
-180 155 -47 42 -116 97 -155 122 -64 42 -177 136 -165 139 3 0 31 3 62 5 31
2 96 17 145 34 48 16 93 29 98 29 6 1 38 -9 73 -21z m2329 -110 c-3 -7 -5 -2
-5 12 0 14 2 19 5 13 2 -7 2 -19 0 -25z m-3563 -276 c-9 -26 -19 -41 -22 -34
-2 6 4 33 14 59 10 25 20 41 22 34 2 -7 -4 -33 -14 -59z m6623 -211 c14 -19
15 -23 3 -19 -17 5 -65 81 -75 118 -4 15 6 4 24 -25 17 -27 39 -61 48 -74z
m-285 73 c10 -16 21 -36 24 -44 3 -8 13 -31 22 -50 14 -31 18 -87 12 -191 -2
-39 -72 -95 -140 -112 l-25 -6 23 19 c12 10 22 23 22 28 0 6 9 14 20 17 22 7
28 35 8 35 -7 0 -41 -18 -76 -40 -34 -22 -65 -40 -68 -40 -8 0 -93 -59 -124
-86 -14 -12 -37 -28 -51 -35 -15 -8 -44 -28 -65 -46 -22 -18 -75 -61 -119 -95
-44 -35 -90 -72 -102 -83 -12 -11 -41 -36 -64 -55 -23 -19 -50 -43 -58 -53
-21 -24 -131 -91 -138 -84 -18 19 499 478 671 596 79 55 185 150 212 191 l26
39 -25 33 c-23 31 -31 54 -28 86 2 21 23 9 43 -24z m-6117 -26 c-11 -50 -56
-158 -66 -158 -12 0 -13 -3 16 70 48 123 63 149 50 88z m66 -160 c24 -17 96
-75 161 -127 165 -136 221 -179 323 -249 50 -34 102 -72 116 -84 14 -13 54
-48 89 -78 66 -57 254 -270 246 -278 -3 -2 -53 34 -113 80 -59 47 -126 93
-148 103 -53 25 -93 55 -72 55 9 0 18 -4 21 -9 3 -5 14 -11 25 -14 37 -9 11
18 -63 66 -91 59 -262 187 -387 288 -94 76 -200 149 -217 149 -5 0 -15 6 -21
14 -7 8 -26 18 -42 21 -17 4 -29 13 -29 23 0 16 47 72 60 72 4 0 27 -14 51
-32z m-98 -123 c20 -19 31 -35 24 -34 -20 1 -90 43 -95 57 -8 25 36 11 71 -23z
m372 -245 c3 -6 -1 -7 -9 -4 -18 7 -21 14 -7 14 6 0 13 -4 16 -10z m5391 -35
c-8 -8 -18 -15 -22 -15 -3 0 -1 7 6 15 7 8 17 15 22 15 5 0 3 -7 -6 -15z
m-8501 -165 c20 -39 25 -64 25 -123 0 -93 -12 -128 -52 -151 l-31 -19 26 -14
c45 -23 57 -61 57 -174 0 -91 -3 -106 -27 -150 l-26 -49 -239 0 c-131 0 -238
2 -238 5 0 3 14 32 30 65 l30 59 0 236 0 236 -30 59 c-16 33 -30 62 -30 65 0
3 108 5 240 5 l240 0 25 -50z m575 -45 l0 -95 -60 30 c-49 25 -71 30 -131 30
-61 0 -70 -2 -65 -16 3 -9 6 -42 6 -75 0 -71 5 -72 90 -29 l60 30 0 -120 c0
-71 -4 -120 -10 -120 -5 0 -34 12 -65 27 -34 17 -58 24 -64 18 -5 -6 -11 -49
-13 -98 l-3 -87 68 0 c55 0 78 5 127 30 l60 30 0 -95 0 -95 -240 0 c-158 0
-240 4 -240 10 0 6 11 33 25 60 25 49 25 53 25 295 0 242 0 246 -25 295 -14
27 -25 54 -25 60 0 6 82 10 240 10 l240 0 0 -95z m500 7 c0 -49 -3 -91 -6 -95
-4 -3 -33 7 -65 23 -48 25 -71 30 -129 30 -64 0 -71 -2 -81 -23 -7 -15 -7 -31
-1 -47 8 -21 30 -32 127 -64 l116 -39 25 -48 c21 -43 24 -62 24 -159 0 -99 -3
-117 -26 -166 l-26 -54 -196 2 -197 3 -3 79 c-4 112 -4 112 68 76 56 -28 68
-31 143 -28 l82 3 3 44 c4 54 -4 91 -20 91 -7 0 -58 16 -116 37 l-103 36 -30
58 c-24 49 -29 70 -29 134 0 64 5 85 30 135 l30 60 190 0 190 0 0 -88z m560
-27 c0 -63 -2 -115 -5 -115 -2 0 -29 12 -60 27 -43 21 -55 32 -55 50 0 16 -6
23 -20 23 -19 0 -20 -7 -20 -240 l0 -240 27 -54 c15 -31 24 -58 21 -61 -3 -3
-69 -4 -147 -3 l-141 3 30 55 29 55 1 243 0 242 -25 0 c-19 0 -25 -5 -25 -23
0 -23 -44 -55 -97 -72 -23 -6 -23 -6 -23 109 l0 116 255 0 255 0 0 -115z
m8863 60 c25 -50 27 -66 27 -170 0 -104 -2 -120 -27 -170 l-27 -55 -128 0
-128 0 0 -80 c0 -66 5 -90 25 -130 14 -27 25 -54 25 -60 0 -6 -50 -10 -140
-10 -90 0 -140 4 -140 10 0 6 11 33 25 60 25 49 25 53 25 295 0 220 -2 250
-19 283 -10 20 -22 47 -25 60 l-7 22 243 0 244 0 27 -55z m611 6 c21 -41 25
-64 27 -148 1 -108 -13 -156 -51 -168 -25 -8 -25 -20 -2 -37 39 -28 52 -61 52
-128 0 -51 6 -78 30 -128 17 -35 30 -66 30 -68 0 -2 -40 -4 -90 -4 l-90 0 -30
60 c-26 51 -30 70 -30 140 l0 80 -65 0 -65 0 0 -140 0 -140 -120 0 c-66 0
-120 2 -120 5 0 3 11 28 25 55 25 49 25 52 25 305 0 253 0 256 -25 305 -14 27
-25 52 -25 55 0 3 112 5 250 5 l250 0 24 -49z m426 37 c0 -7 -12 -31 -25 -53
-25 -40 -25 -41 -25 -300 0 -259 0 -260 25 -304 14 -23 25 -47 25 -52 0 -5
-65 -9 -145 -9 -80 0 -145 2 -145 5 0 3 14 32 30 65 l30 59 0 237 0 237 -30
59 c-16 32 -30 61 -30 63 0 3 65 5 145 5 109 0 145 -3 145 -12z m500 -83 c0
-52 -2 -95 -5 -95 -3 0 -32 14 -65 31 -48 25 -68 30 -112 27 l-53 -3 0 -230 0
-230 58 -3 c56 -3 77 4 180 56 4 2 7 -39 7 -92 l0 -96 -188 0 -188 0 -27 55
-27 55 0 255 0 255 27 55 27 55 183 0 183 0 0 -95z m550 0 l0 -95 -60 30 c-49
25 -71 30 -131 30 -61 0 -70 -2 -65 -16 3 -9 6 -42 6 -75 0 -71 5 -72 90 -29
l60 30 0 -120 c0 -76 -4 -120 -10 -120 -6 0 -33 11 -60 25 -77 39 -80 37 -80
-54 0 -44 -3 -86 -6 -95 -5 -14 4 -16 65 -16 60 0 82 5 131 30 l60 30 0 -95 0
-95 -245 0 -245 0 30 60 30 59 0 246 0 246 -30 59 -30 60 245 0 245 0 0 -95z"/>
<path d="M8105 13600 c-3 -5 -1 -10 4 -10 6 0 11 5 11 10 0 6 -2 10 -4 10 -3
0 -8 -4 -11 -10z"/>
<path d="M11270 12734 c-55 -55 -90 -82 -337 -261 -70 -51 -157 -114 -193
-140 -36 -26 -99 -70 -140 -98 -247 -168 -401 -279 -437 -315 -32 -32 -46 -57
-62 -113 -12 -40 -28 -96 -37 -125 -8 -30 -14 -56 -11 -58 2 -2 15 4 28 14 13
10 67 45 119 77 52 32 126 79 163 104 38 25 93 62 122 81 30 19 98 65 152 102
54 37 168 107 253 156 165 96 223 139 245 183 8 15 28 69 45 120 16 52 35 102
40 111 6 10 10 22 10 28 0 6 23 47 50 92 28 44 49 85 48 90 -2 5 -28 -17 -58
-48z"/>
<path d="M5775 10090 c-8 -13 5 -13 25 0 13 8 13 10 -2 10 -9 0 -20 -4 -23
-10z"/>
<path d="M4580 12655 c0 -5 16 -32 36 -61 23 -34 37 -65 38 -90 2 -22 9 -55
18 -74 8 -19 21 -53 28 -75 43 -135 67 -161 219 -241 41 -21 114 -67 163 -101
49 -35 91 -63 93 -63 11 0 311 -203 403 -272 57 -43 107 -78 112 -78 5 0 15
-3 24 -6 40 -15 2 192 -45 249 -16 19 -83 74 -149 123 -233 171 -335 244 -342
244 -9 0 -53 30 -148 101 -41 30 -120 86 -175 124 -119 81 -142 99 -217 172
-32 31 -58 52 -58 48z"/>
<path d="M7800 12727 c-31 -16 -54 -61 -46 -92 3 -13 22 -40 42 -60 32 -33 40
-37 73 -32 44 6 105 43 122 74 14 27 -3 79 -35 105 -25 21 -119 24 -156 5z"/>
<path d="M7946 12550 c-27 -10 -54 -24 -60 -30 -12 -12 -66 -14 -66 -2 0 4
-16 16 -35 26 -32 18 -42 18 -102 7 -135 -25 -267 -82 -362 -156 -63 -49 -131
-119 -131 -135 0 -6 -21 -52 -46 -103 -26 -50 -51 -105 -56 -122 -41 -131 -49
-223 -21 -251 16 -15 17 -15 25 2 6 14 7 10 4 -11 -11 -68 42 -337 85 -435 34
-77 112 -171 195 -236 107 -84 300 -156 465 -175 129 -14 212 0 364 60 119 48
186 93 266 179 142 152 219 339 219 533 0 114 -59 349 -96 387 -8 7 -14 18
-14 23 0 18 -52 82 -131 161 -61 61 -72 77 -51 71 27 -7 40 -16 108 -81 25
-23 42 -47 39 -51 -3 -5 2 -16 10 -24 8 -9 15 -20 15 -26 0 -5 11 -27 25 -47
14 -20 25 -42 25 -48 0 -6 10 -23 23 -36 12 -14 23 -32 25 -39 2 -8 10 -24 19
-35 15 -21 15 -21 9 4 -4 14 -8 32 -10 40 -19 113 -46 171 -115 240 -31 31
-68 73 -83 93 -29 37 -161 129 -239 165 -142 65 -233 81 -303 52z m56 -334
c108 -23 171 -57 243 -133 136 -141 186 -339 135 -528 -28 -103 -60 -152 -151
-227 -107 -88 -249 -148 -349 -148 -78 0 -204 51 -297 121 -53 40 -133 137
-133 162 0 7 -4 17 -9 23 -22 22 -61 169 -61 229 0 175 135 389 293 464 110
53 204 63 329 37z"/>
<path d="M7786 12065 c-96 -34 -188 -121 -239 -225 -85 -177 -56 -317 95 -455
110 -100 130 -110 228 -109 124 2 204 36 290 124 36 37 78 93 95 126 26 52 29
69 30 149 0 81 -4 97 -35 165 -60 132 -127 198 -231 226 -68 17 -182 17 -233
-1z m200 -121 c97 -57 142 -141 144 -264 0 -75 -64 -163 -158 -217 -56 -33
-175 3 -250 75 -73 70 -102 202 -63 288 44 96 124 153 216 154 40 0 63 -7 111
-36z"/>
<path d="M8016 11739 c-50 -40 -134 -62 -211 -55 -38 3 -83 8 -100 11 l-30 6
35 -30 c25 -22 29 -31 17 -31 -46 0 18 -70 86 -95 26 -9 47 -21 47 -27 0 -18
133 -5 151 15 9 9 20 17 24 17 12 0 44 44 45 63 0 9 5 17 10 17 19 0 11 85
-10 108 -26 27 -31 27 -64 1z"/>
<path d="M8526 12419 c-45 -53 -24 -109 41 -109 27 0 77 28 95 54 9 13 -9 47
-36 68 -33 27 -70 22 -100 -13z"/>
<path d="M6886 11797 c-36 -47 -42 -89 -21 -137 34 -76 124 -85 179 -19 40 47
34 80 -22 139 -61 63 -98 68 -136 17z"/>
<path d="M8882 11470 c0 -14 2 -19 5 -12 2 6 2 18 0 25 -3 6 -5 1 -5 -13z"/>
<path d="M7037 11232 c-19 -20 -23 -52 -7 -52 6 0 10 -6 10 -14 0 -42 127
-222 196 -277 22 -17 71 -47 109 -66 39 -19 108 -54 155 -78 88 -45 105 -52
96 -36 -4 5 3 7 14 4 11 -3 17 -9 14 -15 -3 -5 9 -8 28 -8 18 1 53 -1 77 -4
26 -4 48 -2 51 4 4 6 23 2 50 -11 32 -15 56 -20 87 -16 66 7 83 28 83 102 0
49 -4 66 -20 80 -27 25 -96 30 -150 11 -27 -9 -46 -12 -48 -6 -2 6 -14 10 -27
10 -18 0 -23 -5 -20 -20 3 -16 -2 -20 -25 -20 -16 0 -32 -4 -35 -10 -9 -15
-41 -12 -55 5 -7 8 -16 13 -20 10 -4 -3 -11 2 -14 11 -4 10 -13 13 -25 9 -10
-3 -31 -1 -45 5 -21 8 -26 15 -21 29 5 16 0 21 -28 26 -18 4 -46 19 -60 35
-24 25 -25 29 -10 33 17 4 17 5 0 6 -10 0 -16 5 -12 10 3 5 0 13 -7 18 -14 8
-19 9 -55 11 -31 3 -104 68 -124 110 -18 41 -45 67 -100 100 -44 26 -42 26
-62 4z m730 -404 c-3 -8 -6 -5 -6 6 -1 11 2 17 5 13 3 -3 4 -12 1 -19z m-60
-24 c-3 -3 -12 -4 -19 -1 -8 3 -5 6 6 6 11 1 17 -2 13 -5z m73 -29 c0 -8 -4
-15 -10 -15 -5 0 -10 7 -10 15 0 8 5 15 10 15 6 0 10 -7 10 -15z"/>
<path d="M8797 11225 c-4 -8 -2 -17 3 -20 6 -4 10 3 10 14 0 25 -6 27 -13 6z"/>
<path d="M7230 11134 c0 -12 18 -35 43 -53 26 -20 21 -8 -13 30 -16 19 -30 29
-30 23z"/>
<path d="M3325 12180 c3 -5 13 -10 21 -10 8 0 14 5 14 10 0 6 -9 10 -21 10
-11 0 -17 -4 -14 -10z"/>
<path d="M3700 12040 c0 -5 5 -10 10 -10 6 0 10 5 10 10 0 6 -4 10 -10 10 -5
0 -10 -4 -10 -10z"/>
<path d="M3756 12001 c10 -10 23 -16 27 -14 5 3 0 11 -10 19 -27 20 -39 17
-17 -5z"/>
<path d="M12045 10240 c-3 -5 -1 -10 4 -10 6 0 11 5 11 10 0 6 -2 10 -4 10 -3
0 -8 -4 -11 -10z"/>
<path d="M12062 10180 c0 -14 2 -19 5 -12 2 6 2 18 0 25 -3 6 -5 1 -5 -13z"/>
<path d="M12082 10155 c0 -16 2 -22 5 -12 2 9 2 23 0 30 -3 6 -5 -1 -5 -18z"/>
<path d="M11261 9705 c-13 -33 -24 -72 -25 -87 0 -14 -4 -24 -7 -22 -8 5 -23
-73 -21 -106 2 -18 0 -21 -7 -11 -6 10 -12 2 -19 -30 -21 -87 -51 -196 -80
-284 -16 -49 -32 -112 -35 -139 l-7 -50 20 22 c11 12 23 35 26 52 4 16 10 27
15 25 4 -3 11 11 14 32 11 70 21 114 49 216 9 32 16 67 16 77 0 11 5 20 10 20
6 0 10 11 10 24 0 14 5 37 10 52 9 24 9 25 -5 14 -11 -9 -15 -9 -15 -1 0 6 7
14 16 18 8 3 13 12 10 19 -3 8 -2 14 3 14 5 0 11 27 15 60 4 34 11 58 16 55 6
-3 7 1 4 10 -4 8 -1 22 6 30 6 8 10 22 8 32 -3 11 -13 -5 -27 -42z"/>
<path d="M12305 9060 c-3 -5 1 -10 9 -10 9 0 16 5 16 10 0 6 -4 10 -9 10 -6 0
-13 -4 -16 -10z"/>
<path d="M11860 8969 c0 -5 5 -7 10 -4 6 3 10 8 10 11 0 2 -4 4 -10 4 -5 0
-10 -5 -10 -11z"/>
<path d="M10480 8661 c0 -14 7 -19 25 -17 14 0 25 2 25 2 0 1 -11 9 -25 18
-24 16 -25 15 -25 -3z"/>
<path d="M10645 8565 c11 -8 25 -19 32 -25 7 -5 17 -10 22 -10 6 0 21 -11 35
-25 28 -27 46 -34 25 -9 -16 19 -113 84 -125 84 -5 0 0 -7 11 -15z"/>
<path d="M10822 8200 c-26 -78 -52 -186 -52 -218 0 -40 19 -14 26 36 3 26 10
52 14 57 4 6 11 30 14 55 4 25 12 57 17 72 6 14 9 35 7 45 -2 11 -13 -9 -26
-47z"/>
<path d="M12595 8050 c3 -5 8 -10 11 -10 2 0 4 5 4 10 0 6 -5 10 -11 10 -5 0
-7 -4 -4 -10z"/>
<path d="M12645 7995 c22 -19 44 -35 50 -35 5 0 -8 16 -30 35 -22 19 -44 35
-50 35 -5 0 8 -16 30 -35z"/>
<path d="M12108 7980 c-7 -24 -3 -38 8 -28 3 4 4 17 2 30 l-3 23 -7 -25z"/>
<path d="M10743 7820 c0 -25 2 -35 4 -22 2 12 2 32 0 45 -2 12 -4 2 -4 -23z"/>
<path d="M10660 7651 c0 -6 5 -13 10 -16 6 -3 10 -15 10 -26 0 -10 5 -19 10
-19 6 0 10 -7 10 -15 0 -8 6 -15 13 -16 6 -1 1 -4 -13 -8 -21 -7 -17 -8 23
-12 28 -2 47 0 47 6 0 6 -21 34 -46 63 -43 49 -64 63 -64 43z"/>
<path d="M10136 7555 c-9 -13 -39 -47 -67 -76 -27 -28 -48 -53 -46 -56 9 -8
87 37 87 50 0 7 11 33 25 60 27 50 28 63 1 22z"/>
<path d="M13840 10190 c0 -5 7 -10 15 -10 8 0 15 5 15 10 0 6 -7 10 -15 10 -8
0 -15 -4 -15 -10z"/>
<path d="M8707 9691 c-37 -9 -65 -20 -61 -24 4 -4 -10 -7 -32 -7 -53 0 -194
-22 -194 -30 0 -9 90 -2 145 10 22 5 104 19 182 31 78 13 139 27 137 31 -8 13
-105 7 -177 -11z"/>
<path d="M8585 9599 c-255 -58 -302 -69 -462 -100 l-161 -32 4 -51 c3 -28 1
-150 -4 -271 -5 -121 -5 -224 -1 -229 4 -4 42 -1 86 8 43 8 164 29 268 46 460
74 514 89 592 172 60 63 76 105 81 205 7 143 -1 176 -57 234 l-47 49 -85 -1
c-55 0 -129 -11 -214 -30z"/>
<path d="M7883 9524 c-3 -8 -1 -25 5 -37 9 -18 11 -19 11 -4 1 9 7 17 14 17 8
0 24 9 37 20 l23 20 -42 0 c-28 0 -44 -5 -48 -16z"/>
<path d="M4231 9350 c-1 -8 5 -32 13 -55 8 -22 22 -67 32 -100 10 -33 26 -76
37 -95 l19 -35 -6 53 c-3 29 -12 59 -21 68 -8 8 -15 24 -15 35 0 10 -4 19 -9
19 -5 0 -9 14 -9 31 1 17 -4 34 -10 38 -6 3 -15 18 -21 31 -5 14 -10 18 -10
10z"/>
<path d="M9632 9335 c0 -16 2 -22 5 -12 2 9 2 23 0 30 -3 6 -5 -1 -5 -18z"/>
<path d="M9560 9138 c-12 -22 -12 -22 6 -6 10 10 15 20 12 24 -4 3 -12 -5 -18
-18z"/>
<path d="M7890 8924 c0 -8 5 -12 10 -9 6 4 8 11 5 16 -9 14 -15 11 -15 -7z"/>
<path d="M9223 8835 c-17 -19 -16 -25 2 -25 8 0 15 9 15 20 0 23 -1 24 -17 5z"/>
<path d="M8707 8473 c-43 -8 -76 -17 -74 -20 3 -2 60 1 126 8 70 7 116 16 109
21 -18 11 -71 8 -161 -9z"/>
<path d="M8365 8410 c-66 -10 -159 -23 -207 -30 -49 -7 -88 -16 -88 -20 0 -4
17 -4 38 0 20 4 104 13 187 20 82 6 155 16 161 21 7 5 16 9 20 8 5 -1 27 -1
49 1 32 1 36 3 20 10 -26 11 -38 11 -180 -10z"/>
<path d="M8665 8393 c-30 -4 -47 -7 -215 -43 -47 -10 -121 -23 -165 -30 -44
-6 -126 -20 -183 -31 -57 -12 -111 -18 -119 -14 -9 3 -20 0 -25 -7 -4 -7 -8
-149 -8 -316 0 -250 -3 -306 -14 -318 -20 -20 -23 -12 -32 91 -8 88 -8 89 -15
40 -4 -27 -8 -76 -8 -107 l-1 -58 37 0 c34 0 311 43 473 74 41 8 140 27 220
42 209 38 241 49 294 96 78 68 81 78 81 278 l0 175 -38 52 c-49 67 -85 83
-179 82 -40 -1 -86 -4 -103 -6z"/>
<path d="M8010 8350 l-25 -8 27 -1 c15 -1 30 4 33 9 7 11 0 11 -35 0z"/>
<path d="M7948 8333 c7 -3 16 -2 19 1 4 3 -2 6 -13 5 -11 0 -14 -3 -6 -6z"/>
<path d="M7884 8315 c-4 -8 -2 -75 3 -148 l10 -132 2 105 c1 58 6 124 10 148
7 33 5 42 -6 42 -7 0 -16 -7 -19 -15z"/>
<path d="M7800 8291 c0 -6 5 -13 10 -16 6 -3 10 1 10 9 0 9 -4 16 -10 16 -5 0
-10 -4 -10 -9z"/>
<path d="M4655 8236 c6 -30 35 -79 35 -60 0 5 -9 28 -21 49 -18 35 -20 36 -14
11z"/>
<path d="M7370 8214 c0 -12 3 -14 13 -6 6 5 21 12 32 15 13 3 9 5 -12 6 -24 1
-33 -3 -33 -15z"/>
<path d="M4697 8116 c16 -42 18 -45 21 -23 2 16 -5 35 -18 49 l-21 23 18 -49z"/>
<path d="M4731 8040 c0 -8 4 -22 9 -30 12 -18 12 -2 0 25 -6 13 -9 15 -9 5z"/>
<path d="M7893 7900 c0 -25 2 -35 4 -22 2 12 2 32 0 45 -2 12 -4 2 -4 -23z"/>
<path d="M9080 7845 c-13 -30 -27 -55 -30 -55 -4 0 -16 -13 -28 -30 -13 -16
-18 -30 -13 -30 15 0 81 96 91 131 15 51 6 44 -20 -16z"/>
<path d="M9650 7839 c0 -47 -42 -194 -66 -231 -26 -41 -28 -48 -15 -48 5 0 12
12 15 26 5 20 10 23 20 15 16 -14 26 -4 26 26 0 12 3 22 8 22 21 -4 32 3 32
19 0 15 -2 15 -11 2 -8 -11 -9 -9 -3 10 8 28 7 170 -1 178 -3 3 -5 -6 -5 -19z"/>
<path d="M4800 7828 c0 -15 5 -30 10 -33 13 -8 13 25 0 45 -8 12 -10 9 -10
-12z"/>
<path d="M8915 7674 c-22 -13 -49 -24 -59 -24 -11 0 -17 -3 -13 -6 11 -11 62
6 92 31 37 30 32 30 -20 -1z"/>
<path d="M4320 7682 c0 -15 25 -62 33 -62 4 0 7 16 7 35 0 28 -4 35 -20 35
-11 0 -20 -4 -20 -8z"/>
<path d="M8775 7630 l-30 -8 33 -1 c17 0 32 4 32 9 0 6 -1 9 -2 9 -2 -1 -16
-5 -33 -9z"/>
<path d="M8688 7613 c12 -2 30 -2 40 0 9 3 -1 5 -23 4 -22 0 -30 -2 -17 -4z"/>
<path d="M8508 7573 c6 -2 18 -2 25 0 6 3 1 5 -13 5 -14 0 -19 -2 -12 -5z"/>
<path d="M8350 7549 c-58 -11 -132 -24 -165 -29 -115 -19 -137 -30 -50 -23 44
3 88 9 97 14 9 5 28 9 42 9 25 0 198 39 205 46 7 6 -17 3 -129 -17z"/>
<path d="M9521 7514 c-13 -19 -21 -37 -17 -41 3 -3 6 -1 6 6 0 7 6 11 14 8 9
-4 16 5 20 25 8 42 5 43 -23 2z"/>
<path d="M7998 7473 c6 -2 18 -2 25 0 6 3 1 5 -13 5 -14 0 -19 -2 -12 -5z"/>
<path d="M7870 7460 c-13 -9 -13 -10 0 -9 8 0 24 4 35 9 l20 9 -20 0 c-11 0
-27 -4 -35 -9z"/>
<path d="M5211 7144 c0 -11 3 -14 6 -6 3 7 2 16 -1 19 -3 4 -6 -2 -5 -13z"/>
<path d="M6436 7135 c-3 -8 -1 -15 4 -15 6 0 10 7 10 15 0 8 -2 15 -4 15 -2 0
-6 -7 -10 -15z"/>
<path d="M6430 7100 c0 -5 5 -10 10 -10 6 0 10 5 10 10 0 6 -4 10 -10 10 -5 0
-10 -4 -10 -10z"/>
<path d="M8645 7100 l-20 -9 20 0 c11 0 29 4 40 9 l20 9 -20 0 c-11 0 -29 -4
-40 -9z"/>
<path d="M7715 7030 c-16 -7 -13 -9 15 -8 19 0 49 4 65 8 27 7 26 8 -15 8 -25
0 -54 -3 -65 -8z"/>
<path d="M4580 7023 c0 -4 5 -15 10 -23 8 -13 10 -13 10 2 0 9 -4 20 -10 23
-5 3 -10 3 -10 -2z"/>
<path d="M7258 6998 c-37 -49 -41 -58 -26 -58 11 1 64 90 54 90 -2 0 -15 -15
-28 -32z"/>
<path d="M8048 6999 c-27 -5 -69 -13 -95 -18 -41 -7 -43 -9 -16 -10 33 -1 214
27 222 35 7 7 -60 2 -111 -7z"/>
<path d="M7744 6939 c-3 -5 6 -9 20 -9 31 0 34 6 6 13 -11 3 -23 1 -26 -4z"/>
<path d="M6358 6918 c3 -12 16 -34 29 -48 13 -14 23 -28 23 -33 0 -4 4 -5 10
-2 6 4 7 -1 3 -11 -5 -13 -2 -16 9 -12 10 4 15 1 14 -9 -1 -14 52 -39 61 -29
2 2 -32 40 -76 85 -53 55 -77 75 -73 59z"/>
<path d="M4629 6898 c4 -28 6 -29 9 -9 2 13 0 27 -5 32 -6 6 -7 -3 -4 -23z"/>
<path d="M7620 6915 c-60 -17 -31 -18 45 -1 37 9 49 14 30 14 -16 0 -50 -6
-75 -13z"/>
<path d="M5926 6905 c-4 -11 -12 -31 -18 -45 -14 -36 -88 -150 -120 -185 -32
-35 -35 -47 -10 -38 44 17 112 74 112 96 0 6 12 34 26 64 17 36 24 66 22 91
-3 30 -5 33 -12 17z"/>
<path d="M4647 6839 c4 -13 8 -18 11 -10 2 7 -1 18 -6 23 -8 8 -9 4 -5 -13z"/>
<path d="M5106 6825 c-9 -26 -7 -32 5 -12 6 10 9 21 6 23 -2 3 -7 -2 -11 -11z"/>
<path d="M6350 6770 c-11 -7 -4 -10 25 -9 31 0 36 2 20 9 -26 11 -28 11 -45 0z"/>
<path d="M6250 6650 c-24 -8 -23 -8 8 -9 17 -1 32 4 32 9 0 11 -5 11 -40 0z"/>
<path d="M14366 8527 c3 -10 9 -15 12 -12 3 3 0 11 -7 18 -10 9 -11 8 -5 -6z"/>
<path d="M2585 8800 c3 -5 10 -10 16 -10 5 0 9 5 9 10 0 6 -7 10 -16 10 -8 0
-12 -4 -9 -10z"/>
<path d="M3767 7483 c-3 -4 1 -21 8 -38 l13 -30 1 28 c1 15 1 30 2 34 1 11
-18 15 -24 6z"/>
<path d="M3402 6820 c0 -14 2 -19 5 -12 2 6 2 18 0 25 -3 6 -5 1 -5 -13z"/>
<path d="M3396 6689 c-3 -19 -7 -64 -10 -100 -8 -107 -60 -202 -190 -344 -48
-53 -57 -72 -28 -60 9 5 51 17 92 27 41 11 97 26 124 34 26 8 67 14 91 14 23
0 64 3 91 7 42 6 45 8 24 14 -14 4 -36 7 -50 7 -23 1 -23 0 -5 -8 16 -7 13 -9
-17 -9 -37 -1 -52 12 -25 22 9 4 9 7 -1 18 -9 9 -15 10 -20 3 -4 -6 -15 -13
-24 -17 -14 -5 -18 -1 -18 14 0 11 4 18 9 15 10 -6 33 17 30 30 -5 21 15 44
38 44 19 0 24 4 19 16 -3 9 -6 18 -6 20 0 2 -9 4 -20 4 -13 0 -20 7 -20 20 0
11 -4 20 -9 20 -5 0 -19 15 -31 34 -15 26 -22 56 -25 117 -5 91 -11 108 -19
58z m44 -210 c0 -11 -4 -18 -10 -14 -5 3 -7 12 -3 20 7 21 13 19 13 -6z"/>
<path d="M3776 6672 c-4 -13 -5 -26 -2 -29 10 -11 18 4 14 29 l-4 23 -8 -23z"/>
<path d="M3782 6610 c0 -14 2 -19 5 -12 2 6 2 18 0 25 -3 6 -5 1 -5 -13z"/>
<path d="M3785 6560 c-4 -12 -5 -24 -2 -27 3 -2 8 5 12 17 4 12 5 24 2 27 -3
2 -8 -5 -12 -17z"/>
<path d="M3801 6518 c-1 -10 4 -18 9 -18 6 0 10 -8 10 -17 0 -10 9 -26 19 -38
72 -77 127 -125 143 -125 12 0 -11 29 -70 88 -48 48 -93 96 -99 107 -10 18
-12 18 -12 3z"/>
<path d="M3578 6303 c6 -2 18 -2 25 0 6 3 1 5 -13 5 -14 0 -19 -2 -12 -5z"/>
<path d="M2108 8247 c-124 -45 -172 -87 -207 -182 -65 -173 29 -337 218 -381
131 -31 291 41 354 160 32 62 31 173 -4 246 -47 100 -136 164 -241 175 -41 4
-68 0 -120 -18z m164 -48 c49 -25 70 -58 76 -120 l5 -49 -96 0 c-91 0 -100 -2
-160 -35 -35 -19 -66 -35 -69 -35 -11 0 -38 81 -38 114 0 27 9 42 50 80 85 79
142 90 232 45z"/>
<path d="M14514 7238 c-18 -20 -18 -21 -1 -15 10 4 25 7 33 7 8 0 14 7 14 15
0 22 -24 18 -46 -7z"/>
<path d="M13097 6900 c-13 -38 -14 -59 -2 -64 16 -6 25 32 14 60 -5 15 -8 16
-12 4z"/>
<path d="M9620 6775 c-36 -7 -90 -17 -120 -22 -47 -7 -54 -11 -51 -28 2 -11 5
-68 8 -127 3 -60 7 -108 9 -108 24 0 255 55 276 66 26 14 28 18 28 80 0 36 -5
85 -11 110 -11 41 -14 44 -43 43 -17 -1 -60 -7 -96 -14z"/>
<path d="M8747 6573 c-4 -3 -7 -17 -7 -30 0 -29 -16 -99 -42 -183 -31 -102
-29 -98 -38 -75 -6 17 -8 15 -15 -13 -4 -18 -4 -36 -1 -39 6 -6 206 24 214 32
2 2 -2 21 -9 42 -6 21 -19 58 -27 83 -8 25 -18 54 -23 65 -4 11 -16 44 -25 73
-17 56 -17 55 -27 45z"/>
<path d="M8100 6500 c-19 -4 -76 -13 -125 -20 l-91 -12 1 -130 0 -129 30 6
c17 4 48 11 70 15 128 25 191 42 202 56 15 20 25 104 21 169 -3 49 -3 50 -38
52 -19 1 -51 -2 -70 -7z"/>
<path d="M7300 6362 c-49 -7 -196 -45 -221 -58 -56 -28 -59 -42 -59 -299 0
-144 4 -244 10 -256 16 -29 96 -24 215 14 l100 33 8 204 c8 219 3 344 -16 357
-7 5 -23 7 -37 5z"/>
<path d="M1923 6053 c-12 -2 -27 -11 -33 -19 -16 -19 -55 -18 -74 2 -29 28
-33 -14 -6 -60 66 -116 123 -156 222 -156 71 0 158 70 158 126 0 8 5 14 10 14
6 0 10 10 9 23 0 12 -3 16 -6 10 -6 -17 -23 -16 -23 1 0 22 -79 46 -128 39
-36 -5 -42 -3 -36 11 5 13 -1 16 -32 15 -22 -1 -49 -4 -61 -6z"/>
<path d="M4766 5813 c-2 -10 -19 -76 -37 -148 -17 -71 -39 -142 -47 -157 -9
-15 -14 -29 -11 -32 2 -2 46 3 97 12 110 19 107 9 57 182 -19 67 -35 128 -35
135 0 22 -18 27 -24 8z"/>
<path d="M2493 5493 c9 -2 23 -2 30 0 6 3 -1 5 -18 5 -16 0 -22 -2 -12 -5z"/>
<path d="M10220 5115 c-177 -35 -344 -158 -423 -312 -41 -78 -77 -239 -77
-342 0 -130 61 -286 148 -378 141 -149 387 -244 551 -214 160 30 237 69 332
168 130 135 180 248 187 418 9 249 -58 409 -227 539 -153 118 -311 157 -491
121z m85 -74 c3 -5 1 -13 -5 -16 -15 -9 -43 3 -35 15 8 13 32 13 40 1z m217
-149 c75 -36 187 -141 219 -203 26 -51 59 -182 59 -234 0 -57 -23 -133 -60
-204 -85 -158 -292 -265 -453 -232 -107 21 -164 54 -249 143 -132 136 -168
246 -134 399 37 161 117 268 251 335 70 35 71 35 185 32 107 -3 121 -5 182
-36z"/>
<path d="M10233 4811 c-98 -33 -181 -112 -199 -187 -6 -28 -6 -28 9 -9 9 11
17 25 17 30 0 20 79 91 130 119 39 21 69 29 119 32 36 1 53 1 36 -2 -145 -21
-229 -78 -286 -192 -44 -88 -46 -168 -7 -254 77 -167 250 -236 408 -162 156
73 223 196 200 367 -12 85 -24 116 -62 158 -92 102 -242 143 -365 100z"/>
<path d="M8672 4083 c-2 -68 1 -83 13 -83 11 0 15 11 15 40 0 22 -4 40 -9 40
-6 0 -12 19 -14 43 -2 23 -4 5 -5 -40z"/>
<path d="M8721 3774 c0 -11 3 -14 6 -6 3 7 2 16 -1 19 -3 4 -6 -2 -5 -13z"/>
<path d="M5378 4775 c-67 -24 -127 -74 -178 -147 l-50 -71 5 -81 c13 -185 70
-292 189 -354 68 -35 180 -38 241 -5 51 27 118 93 163 161 30 45 36 62 40 127
16 247 -205 445 -410 370z m-207 -258 c-10 -9 -11 -8 -5 6 3 10 9 15 12 12 3
-3 0 -11 -7 -18z"/>
<path d="M7181 2822 c-18 -73 -4 -219 24 -242 9 -8 11 12 8 93 -3 56 -8 125
-12 152 l-7 50 -13 -53z"/>
<path d="M6597 3816 c-4 -43 -7 -105 -7 -138 0 -43 -4 -58 -14 -58 -7 0 -19
-13 -26 -30 -7 -16 -16 -30 -21 -30 -5 0 -4 -11 1 -24 7 -18 5 -26 -6 -30 -8
-3 -14 -10 -14 -15 0 -6 7 -8 16 -4 12 4 15 2 12 -8 -3 -8 -14 -12 -24 -11
-17 4 -17 2 4 -20 12 -13 22 -29 22 -35 0 -5 9 -18 20 -28 11 -10 20 -23 20
-29 1 -6 14 -27 30 -46 l30 -34 0 34 c0 19 -5 109 -11 200 -6 91 -14 215 -18
275 l-6 110 -8 -79z"/>
<path d="M3956 3361 c-26 -50 -29 -103 -10 -172 36 -134 86 -197 194 -248 47
-22 69 -26 150 -26 87 0 100 3 150 30 59 33 100 83 125 154 17 50 20 118 5
141 -8 12 -11 12 -27 -1 -40 -35 -135 -66 -118 -39 6 9 -31 23 -51 19 -23 -4
-26 3 -9 21 31 34 8 41 -80 24 -141 -27 -141 -27 -195 -3 -47 21 -50 25 -50
61 0 27 4 38 15 38 8 0 15 4 15 9 0 13 -26 21 -66 21 -27 0 -36 -6 -48 -29z"/>
<path d="M11850 3316 c0 -7 -12 -21 -26 -31 -14 -9 -33 -24 -43 -33 -10 -9
-40 -27 -67 -40 -27 -13 -76 -37 -109 -53 -75 -37 -111 -37 -217 0 -93 33
-101 30 -91 -34 12 -79 69 -162 134 -195 43 -23 167 -28 216 -9 43 16 104 59
146 104 97 102 144 305 71 305 -8 0 -14 -6 -14 -14z"/>
<path d="M1779 1991 c6 -11 11 -45 11 -76 l0 -56 53 3 52 3 0 70 0 70 -63 3
c-60 3 -63 2 -53 -17z"/>
<path d="M1790 1654 c0 -41 -5 -84 -11 -95 -10 -19 -7 -20 53 -17 l63 3 3 93
3 92 -56 0 -55 0 0 -76z"/>
<path d="M12264 1988 c3 -13 6 -56 6 -95 l0 -73 64 0 c75 0 76 2 76 95 0 94
-1 95 -82 95 -68 0 -70 -1 -64 -22z"/>
<path d="M12869 1991 c6 -11 11 -54 11 -96 l0 -76 63 3 62 3 0 90 0 90 -73 3
c-70 3 -73 2 -63 -17z"/>
</g>
</svg>
